<?xml version="1.0" encoding="UTF-8" standalone="no"?>
<!-- Created with Inkscape (http://www.inkscape.org/) -->

<svg
   width="210mm"
   height="210mm"
   viewBox="0 0 210 210"
   version="1.1"
   id="svg1"
   xml:space="preserve"
   xmlns="http://www.w3.org/2000/svg"
   xmlns:svg="http://www.w3.org/2000/svg"><defs
     id="defs1" /><g
     id="layer1"><path
       style="fill:#000000;stroke-width:1.04822"
       d="m 71.667077,198.25364 c -0.204772,-0.114 -0.570866,-0.30548 -0.81354,-0.4255 -0.828235,-0.40961 -1.012472,-0.73827 -1.557967,-2.77922 -0.272431,-1.01928 -0.738116,-2.85849 -1.034855,-4.08714 -0.68805,-2.84883 -1.966096,-7.76444 -2.765739,-10.63757 -0.341954,-1.22862 -0.795432,-2.92797 -1.007733,-3.77632 -0.212299,-0.84835 -0.445695,-1.6034 -0.518656,-1.67789 -0.107131,-0.10939 -0.284963,-0.0654 -0.924206,0.22835 -1.027848,0.47239 -3.351508,1.11968 -10.316417,2.87384 -3.127768,0.78773 -6.476689,1.6551 -7.442049,1.92747 -4.889206,1.37943 -10.192329,2.69464 -13.031017,3.23174 -2.697229,0.51033 -3.404489,0.59182 -5.15922,0.59442 -1.592744,0.002 -1.669441,-0.007 -2.255094,-0.2953 -0.748469,-0.36754 -1.184231,-0.92996 -1.473731,-1.90204 -0.419866,-1.40983 -1.561386,-6.69489 -2.224566,-10.29938 -0.544539,-2.95966 -0.637548,-3.72899 -0.518376,-4.28774 0.206816,-0.9697 1.119992,-1.50876 2.023051,-1.19422 0.252797,0.088 0.522204,0.16078 0.598686,0.16164 0.07648,8.4e-4 1.225338,-0.45732 2.553016,-1.01814 6.091694,-2.57316 13.572207,-5.10306 22.3328,-7.5529 0.30716,-0.0858 0.558472,-0.20329 0.558472,-0.26089 0,-0.0576 -0.271988,-0.27872 -0.604421,-0.49137 -1.34783,-0.8622 -1.943922,-1.65617 -1.943922,-2.58923 0,-1.25211 1.075038,-2.2543 3.878039,-3.61524 2.057752,-0.99911 3.197331,-1.3363 6.967605,-2.0617 5.467185,-1.05188 8.500826,-1.49701 12.392763,-1.81833 1.111626,-0.0917 3.122126,-0.26111 4.467777,-0.37629 7.024704,-0.60132 15.546874,-1.0573 19.892248,-1.06435 3.639118,-0.006 3.884628,-0.0479 9.946125,-1.70055 4.70403,-1.28254 10.56407,-2.85051 15.31809,-4.09864 1.25789,-0.33025 2.32907,-0.64091 2.3804,-0.69036 0.1922,-0.18518 -1.97744,-0.5633 -4.24197,-0.73927 -0.7606,-0.0592 -1.77015,-0.13864 -2.24346,-0.17675 -0.79497,-0.0641 -0.89637,-0.0486 -1.32971,0.20089 -0.6922,0.39866 -1.14454,0.42746 -2.91574,0.18561 -0.87761,-0.11984 -2.21794,-0.29007 -2.97853,-0.37833 -0.76059,-0.0882 -1.45468,-0.18149 -1.54244,-0.20722 -0.62433,-0.18309 -5.64887,-0.71016 -7.594037,-0.79663 -1.293649,-0.0575 -2.854713,-0.18201 -3.469033,-0.27669 -0.865885,-0.13345 -1.506376,-0.15665 -2.849497,-0.10325 -1.581079,0.063 -1.776384,0.0925 -2.233889,0.33916 -0.536376,0.28914 -0.487327,0.28768 -2.750763,0.081 -0.418095,-0.0382 -1.173017,-0.035 -1.677606,0.007 l -0.917438,0.0765 -0.325755,0.49761 c -0.567419,0.86673 -1.013442,1.05683 -4.511539,1.92276 -3.315728,0.82079 -4.035969,0.96419 -4.842667,0.96419 -0.909905,0 -1.277321,-0.16178 -1.870967,-0.82386 l -0.439053,-0.48966 -1.9544,0.33916 c -2.111359,0.36638 -5.379832,0.85247 -7.592309,1.12912 -2.130561,0.26641 -2.026889,0.23249 -2.431456,0.79562 -0.198296,0.27601 -0.532946,0.58366 -0.743667,0.68365 -0.210721,0.1 -1.042528,0.29817 -1.84846,0.44037 -4.967175,0.87652 -6.678578,1.39928 -10.028572,3.06329 l -1.542448,0.76616 0.02013,0.45209 c 0.01478,0.3318 -0.02059,0.4521 -0.13297,0.4521 -0.08422,0 -0.154632,-0.0598 -0.156494,-0.13297 -0.0018,-0.0732 -0.07034,-0.22132 -0.152157,-0.32933 -0.142102,-0.18756 -0.171778,-0.18077 -0.661466,0.15112 -0.281978,0.1911 -0.692336,0.50684 -0.911903,0.70164 -0.319912,0.28381 -0.489546,0.35416 -0.853931,0.35416 -0.263581,0 -0.563468,-0.0783 -0.713445,-0.18614 -0.142303,-0.10242 -0.452135,-0.2819 -0.688517,-0.39892 -0.795495,-0.39378 -0.817765,-0.50964 -0.917034,-4.7711 -0.0479,-2.05642 -0.207333,-5.94092 -0.354289,-8.63223 -0.146954,-2.6913 -0.317697,-6.25755 -0.379427,-7.92499 -0.298011,-8.04982 -0.438309,-11.49178 -0.541996,-13.29696 -0.13182,-2.29501 -0.07288,-3.04275 0.281016,-3.56424 0.138717,-0.20441 0.205695,-0.37165 0.148843,-0.37165 -0.05685,0 -0.522134,0.14713 -1.033957,0.32693 -2.372639,0.83359 -4.364421,1.35255 -10.185269,2.65384 -1.287145,0.28773 -3.560925,0.83114 -5.052844,1.20757 -3.398583,0.85749 -4.981581,1.13045 -6.556134,1.13045 -1.906591,0 -4.150164,-0.38349 -6.220206,-1.06321 -5.3369,-1.75245 -8.3877611,-5.17769 -9.5246294,-10.69347 -0.1660177,-0.80548 -0.1956979,-1.43073 -0.1892569,-3.986995 0.018767,-7.448182 0.7951951,-11.62 3.3656342,-18.08386 1.9275551,-4.847205 3.7876183,-7.655384 6.0137991,-9.079167 0.424173,-0.271287 0.772002,-0.553397 0.772955,-0.626913 9.52e-4,-0.07352 0.04562,-0.660226 0.09926,-1.3038 0.284662,-3.415471 1.325361,-6.670748 5.305228,-16.594603 2.330654,-5.811516 3.346195,-7.934905 4.94397,-10.337319 3.452505,-5.191181 9.015502,-10.112921 15.392722,-13.618373 8.738507,-4.803414 16.771185,-7.261915 25.476969,-7.797545 2.895683,-0.178158 9.558813,-0.189606 10.850317,-0.01864 2.531214,0.335075 5.663851,1.09435 7.552671,1.830583 l 0.851005,0.331708 0.264106,-0.353738 c 2.13517,-2.859812 7.291766,-6.099864 12.554161,-7.888175 5.562415,-1.890272 12.614965,-2.878677 19.253975,-2.698422 2.45496,0.06666 3.92795,0.198252 8.51006,0.760285 1.60893,0.197349 3.45189,0.413443 4.09545,0.480208 5.55399,0.576183 8.51996,1.419186 11.8256,3.361145 1.42357,0.836296 5.2921,3.265589 7.10928,4.464356 3.4054,2.246485 5.07434,3.729343 7.59594,6.74899 0.8538,1.022437 1.81818,2.147361 2.14308,2.499828 0.32489,0.352469 1.24985,1.354624 2.0555,2.227012 3.10005,3.356943 5.31159,6.157436 7.54956,9.560094 1.58011,2.402433 2.08443,3.276575 3.14328,5.448349 1.4836,3.042927 2.11799,4.864861 2.29645,6.595289 0.0423,0.409546 0.11776,0.821535 0.1678,0.915528 0.0501,0.09399 0.39218,0.254217 0.76027,0.356049 0.92687,0.256411 2.3173,0.920343 3.10586,1.48305 1.73368,1.237125 4.36571,4.628463 6.00796,7.741164 1.52743,2.895081 2.63354,5.841984 4.46524,11.896285 1.14959,3.799746 1.27767,4.641069 1.36038,8.935554 0.0529,2.746301 0.0318,3.410336 -0.16822,5.318782 -0.46845,4.467983 -1.02792,7.56676 -1.72496,9.554181 -0.67486,1.92425 -2.44799,4.97932 -3.83807,6.613 -1.79133,2.1052 -4.86058,4.24364 -7.68791,5.35639 -2.56296,1.0087 -5.67826,1.45149 -10.21206,1.45147 -2.36507,-2e-5 -4.05508,-0.16936 -6.31426,-0.63268 -0.89855,-0.18428 -1.65602,-0.31276 -1.68326,-0.28553 -0.0273,0.0273 0.0258,0.19522 0.11788,0.37328 0.17823,0.34466 0.20525,0.7841 0.0696,1.13169 -0.0613,0.15719 0.003,0.31909 0.24683,0.62352 0.32354,0.40352 0.32957,0.43234 0.32295,1.54287 -0.008,1.46958 -0.26328,2.60791 -0.73707,3.29667 l -0.3579,0.5203 -0.0216,2.06136 -0.0217,2.06138 0.32114,0.69143 c 0.51898,1.11747 0.87712,2.73091 0.87712,3.95164 0,0.76771 0.0355,1.04792 0.13297,1.04762 0.12657,-4e-4 0.71997,-0.1571 4.38798,-1.15877 1.9407,-0.52997 11.39417,-2.66668 16.32868,-3.69067 1.95735,-0.4062 4.45962,-1.01731 4.94647,-1.20804 0.87167,-0.34152 5.09742,-1.35332 8.51004,-2.03762 4.03401,-0.8089 5.88126,-1.22943 8.34543,-1.89985 1.07959,-0.29373 2.44387,-0.63506 3.03171,-0.75853 0.58785,-0.12346 1.66718,-0.41049 2.39851,-0.63786 2.52741,-0.78572 3.4113,-0.8985 4.13765,-0.52794 0.82453,0.42064 0.83071,1.20307 0.0158,2.00542 -0.27931,0.27502 -1.08396,1.26593 -1.78813,2.20204 -3.33239,4.43 -8.21601,9.52266 -13.32206,13.89235 -1.88217,1.61074 -12.17096,9.50669 -15.17256,11.64394 -11.23908,8.00265 -20.02416,13.47873 -30.62216,19.08803 -5.72648,3.03089 -15.49549,7.68516 -21.4347,10.21214 -0.38028,0.16179 -1.67274,0.71256 -2.87213,1.22391 -2.23632,0.95343 -7.61246,3.2007 -11.48858,4.80234 -6.88423,2.84456 -8.32506,3.43443 -11.27581,4.61625 -3.016792,1.20831 -4.414804,1.76349 -6.010221,2.38682 -0.351039,0.13716 -2.648752,1.04933 -5.10603,2.02704 -10.363036,4.12331 -15.94721,6.21908 -16.569973,6.21878 -0.189066,-9e-5 -0.511299,-0.0934 -0.716071,-0.20745 z m 3.244459,-3.50523 c 0.936105,-0.34472 1.833649,-0.67835 1.994542,-0.7414 0.324563,-0.12718 0.365337,-0.37274 0.187711,-1.13047 -0.05486,-0.23403 -0.153218,-1.10576 -0.218573,-1.93721 -0.236865,-3.01349 0.29565,-4.92437 1.629999,-5.84906 0.351362,-0.2435 0.539282,-0.29496 1.08253,-0.29646 0.805774,-0.002 1.21796,0.24247 1.93324,1.1477 0.26842,0.33969 0.50472,0.60096 0.525113,0.58056 0.02039,-0.0205 -0.226431,-0.72914 -0.548493,-1.57501 -0.322062,-0.84587 -0.685456,-1.86657 -0.80754,-2.26823 l -0.221971,-0.73028 -0.491204,0.0687 c -0.270161,0.0378 -1.168027,0.0975 -1.995256,0.13289 l -1.504052,0.0643 -0.178924,-0.27307 c -0.396046,-0.60445 0.178919,-0.92205 1.687051,-0.93195 0.950974,-0.006 1.92428,-0.11655 2.038838,-0.23112 0.03197,-0.0319 -0.01461,-0.33881 -0.1035,-0.68188 -0.610249,-2.35502 -0.84066,-5.84817 -0.465605,-7.05882 0.236283,-0.76271 0.705918,-1.49165 1.207505,-1.87423 0.333315,-0.25422 0.50438,-0.30647 1.003442,-0.30647 0.749816,0 1.049165,0.21047 2.244491,1.57806 1.284105,1.46918 2.804539,3.80955 3.725929,5.73525 0.13297,0.27792 0.29206,0.50411 0.353536,0.50265 0.738464,-0.0175 10.332692,-3.47579 10.790111,-3.88935 0.123273,-0.11147 0.083,-0.21134 -0.248218,-0.61553 -0.409951,-0.5003 -1.49454,-1.42477 -2.246322,-1.9147 -0.37962,-0.24739 -0.473727,-0.26763 -0.768047,-0.16502 -0.484757,0.16899 -0.975497,-0.0273 -1.586798,-0.63448 -0.438961,-0.43606 -0.628958,-0.53876 -1.361177,-0.73579 -1.138522,-0.30636 -2.19761,-0.41586 -3.006043,-0.31081 -0.883057,0.11478 -1.550045,-0.15158 -1.784454,-0.71261 -0.369581,-0.88452 -0.09503,-1.41048 1.644115,-3.14963 1.902389,-1.90238 2.764541,-3.17477 3.147543,-4.64521 0.420352,-1.61384 -0.08644,-3.43316 -1.408928,-5.05797 -0.748574,-0.91968 -1.618021,-1.56926 -2.952842,-2.20611 -3.044024,-1.45234 -5.218607,-1.62378 -8.670409,-0.68362 -0.380293,0.10356 -1.122262,0.19864 -1.648823,0.21122 -1.243423,0.0298 -5.392652,0.3457 -6.010223,0.45769 -0.263281,0.0477 -1.460006,0.31103 -2.659392,0.58509 -1.199385,0.27407 -2.874602,0.6549 -3.722705,0.8463 -1.207149,0.27243 -1.549709,0.38802 -1.577488,0.53227 -0.01952,0.10133 0.11704,0.50587 0.303463,0.89894 0.586199,1.23597 1.572624,4.47806 1.431804,4.70592 -0.02106,0.0341 0.05605,0.61001 0.171409,1.27982 0.225928,1.31194 0.276915,3.53576 0.109624,4.78142 -0.102632,0.76419 -0.0289,0.95737 0.36531,0.95737 0.316755,0 0.433782,0.19014 0.237711,0.3862 -0.321914,0.32192 0.381905,3.44948 2.737841,12.16613 0.561368,2.07699 1.355985,5.16455 1.765819,6.86123 0.409832,1.6967 0.965164,3.91063 1.234069,4.91988 0.435096,1.63298 0.513321,1.83491 0.710576,1.83439 0.121909,-3.3e-4 0.987559,-0.28264 1.923666,-0.62737 z m 1.973647,-28.49 c -0.711464,-0.25119 -1.366175,-0.98114 -1.938025,-2.16075 -0.87382,-1.8025 -1.121438,-2.95272 -0.778453,-3.61598 0.16886,-0.32654 0.646098,-0.63478 0.982819,-0.63478 0.108553,0 0.357997,-0.11851 0.554323,-0.26335 0.196325,-0.14484 0.528742,-0.32097 0.738702,-0.39139 0.514664,-0.17263 1.654045,-0.17237 2.253831,5e-4 1.349094,0.38886 2.803306,2.23516 2.938981,3.7314 0.05254,0.57955 0.02294,0.71295 -0.302075,1.36082 -0.730351,1.45583 -1.808751,2.16602 -3.263065,2.14892 -0.392726,-0.004 -0.926892,-0.0835 -1.187038,-0.17539 z m 1.704495,-2.57379 c 0.390884,-0.3909 0.393368,-0.71381 0.0095,-1.24214 -0.445201,-0.61283 -0.586499,-0.69768 -1.100224,-0.66073 -0.440332,0.0317 -0.459357,0.0473 -0.445855,0.36428 0.0078,0.18215 0.146701,0.62665 0.308764,0.98778 0.421865,0.94004 0.70949,1.06907 1.227763,0.55081 z m 2.646176,28.65724 c 3.285439,-1.27741 3.120098,-1.20002 3.059427,-1.43202 -0.09851,-0.3767 -1.495994,-2.92126 -1.536926,-2.79845 -0.02251,0.0676 0.03375,0.37419 0.124997,0.68148 0.308881,1.04011 0.177294,1.24709 -0.279847,0.4402 -0.691138,-1.21993 -2.671457,-3.32413 -3.128419,-3.32413 -0.224347,0 -0.67544,0.5071 -0.904228,1.01647 -0.435854,0.9704 -0.525177,3.41199 -0.196312,5.36607 0.152811,0.90799 0.171612,0.95738 0.36441,0.95738 0.09027,0 1.21388,-0.40814 2.496898,-0.907 z m 5.914199,-2.38069 c 0.05558,-0.053 0.422598,-0.1946 0.815591,-0.31459 0.663532,-0.20259 1.359791,-0.50372 1.359791,-0.5881 0,-0.0389 -1.228404,-3.32884 -1.930616,-5.17067 -1.02244,-2.68177 -1.296661,-3.29766 -1.468275,-3.29766 -0.250914,0 -2.808044,0.74518 -2.915763,0.84968 -0.172554,0.16743 1.117851,3.65564 2.016884,5.45202 1.482452,2.96215 1.781482,3.3946 2.122388,3.06932 z m 7.514387,-2.93131 c 1.52907,-0.61212 2.822698,-1.15552 2.874727,-1.20755 0.05521,-0.0552 -0.0627,-0.4001 -0.283215,-0.82839 -0.533629,-1.03643 -0.737355,-1.93266 -0.662512,-2.91449 0.102096,-1.33944 0.377411,-1.95682 1.149708,-2.57818 0.734189,-0.59071 1.846354,-0.49 2.678582,0.24256 0.51006,0.44898 1.09756,1.24028 0.99613,1.34172 -0.0363,0.0362 -0.40687,-0.11312 -0.82347,-0.33204 -0.5233,-0.27499 -0.946179,-0.41515 -1.367824,-0.45338 -0.570119,-0.0517 -0.625526,-0.036 -0.840784,0.23762 -0.337583,0.42915 -0.468664,1.04914 -0.427338,2.02117 0.03202,0.75328 0.08988,0.96693 0.46211,1.70665 0.27472,0.54593 0.49758,0.85894 0.628902,0.88329 0.256483,0.0476 3.579604,-1.26102 3.646764,-1.43602 0.0274,-0.0713 -0.0476,-0.26447 -0.1664,-0.42938 -0.11888,-0.1649 -0.34223,-0.75459 -0.49635,-1.3104 -0.99316,-3.58145 -2.073888,-6.2599 -2.47574,-6.1357 -0.09889,0.0306 -1.017504,0.37524 -2.04137,0.76595 -1.023865,0.39073 -2.244526,0.84585 -2.712579,1.0114 -2.912809,1.03019 -4.676683,1.64146 -5.393884,1.86927 -0.450852,0.14319 -0.843743,0.29922 -0.87309,0.3467 -0.02935,0.0475 0.08474,0.42568 0.25353,0.84046 0.336306,0.82638 2.300241,6.01915 2.614636,6.91324 0.108009,0.30715 0.260045,0.55847 0.337857,0.55847 0.07781,0 1.392538,-0.50082 2.92161,-1.11297 z m 11.36198,-4.58425 c 0.4973,-0.19245 1.93337,-0.78637 3.19126,-1.31982 1.25788,-0.53345 3.04101,-1.28642 3.96251,-1.67329 1.24662,-0.52338 1.6754,-0.7505 1.6754,-0.8875 0,-0.10123 -0.18736,-0.56062 -0.41638,-1.02082 -0.59795,-1.20164 -0.86353,-2.09182 -0.93193,-3.12382 -0.1705,-2.57185 1.14786,-3.41476 3.235,-2.06833 0.91063,0.58744 0.94104,0.49312 0.34152,-1.05902 -0.32419,-0.83932 -0.58292,-1.31261 -0.97523,-1.78402 -0.48925,-0.58789 -0.56131,-0.63615 -0.86039,-0.57634 -0.40434,0.0808 -1.04871,0.36728 -5.39224,2.39669 -1.90146,0.88844 -4.36672,2.00322 -5.47834,2.47731 -1.11163,0.4741 -2.0824,0.91697 -2.15726,0.98417 -0.10873,0.0976 -0.0191,0.36702 0.4445,1.33851 0.56838,1.19069 1.69813,4.69368 1.98654,6.15961 0.10513,0.53436 0.15948,0.63951 0.29964,0.57966 0.0941,-0.0402 0.57808,-0.23055 1.0754,-0.42299 z m -76.325167,-2.18152 c 2.903416,-0.42624 7.23844,-1.44941 14.148592,-3.33943 2.047731,-0.56008 5.613974,-1.4937 7.924985,-2.07473 2.31101,-0.58105 5.336777,-1.36806 6.723922,-1.74896 1.387146,-0.38089 2.94289,-0.74595 3.457208,-0.81126 1.482467,-0.18822 1.413964,-0.15861 1.412756,-0.61053 -5.83e-4,-0.2183 0.07942,-0.9047 0.177781,-1.52537 l 0.17884,-1.12847 -0.391088,-1.31816 c -0.2151,-0.725 -0.508452,-2.08777 -0.651897,-3.02837 -0.302857,-1.98593 -0.426412,-2.57681 -0.650941,-3.113 -0.08964,-0.21406 -0.322962,-0.8679 -0.518491,-1.45296 -0.470762,-1.40863 -0.74808,-2.03066 -0.93777,-2.10347 -0.08577,-0.033 -1.418806,0.22706 -2.962286,0.5777 -1.543481,0.35064 -3.165345,0.68453 -3.604145,0.74196 -2.301721,0.30129 -9.404305,2.31022 -16.488226,4.66365 -4.447714,1.47762 -6.66371,2.29729 -10.217125,3.77922 -2.689903,1.1218 -3.042257,1.29107 -3.12242,1.49999 -0.09949,0.25927 1.57253,8.56234 2.177458,10.81297 l 0.107219,0.39891 0.8735,-5.7e-4 c 0.480423,-3.2e-4 1.543381,-0.099 2.362128,-0.21912 z m 2.324273,-3.50787 c -0.986583,-0.19517 -1.925902,-0.89661 -2.422451,-1.80893 -1.019183,-1.87258 -0.697348,-3.94493 0.854436,-5.50187 0.533762,-0.53554 0.901395,-0.78098 1.868164,-1.24724 1.425027,-0.68725 1.926501,-0.79118 2.591733,-0.53712 0.651997,0.24899 0.948616,0.69247 0.973453,1.4554 0.01681,0.51649 0.07685,0.67567 0.431516,1.14427 0.603211,0.79699 0.802907,1.4387 0.756959,2.43247 -0.04755,1.02826 -0.394461,1.78776 -1.227681,2.68772 -0.655877,0.70843 -1.549307,1.20775 -2.467738,1.37914 -0.642432,0.11991 -0.734254,0.11966 -1.358391,-0.004 z m 1.438379,-3.6144 c 0.339184,-0.3392 0.933788,-1.99318 0.773987,-2.15297 -0.09789,-0.098 -1.025374,0.37314 -1.381441,0.70159 -0.499679,0.46093 -0.68174,1.11181 -0.438247,1.5668 0.170825,0.31918 0.665716,0.26456 1.045701,-0.11542 z m 19.806423,-1.91238 c -1.055415,-0.28508 -1.597847,-0.56003 -2.234815,-1.13271 -0.698062,-0.62762 -1.179874,-1.59612 -1.254109,-2.52093 -0.142821,-1.77924 1.218973,-3.93145 2.836787,-4.48332 0.54805,-0.18696 1.45921,-0.20988 1.888887,-0.0476 0.428416,0.16187 0.860144,0.60761 1.000539,1.033 0.116772,0.35384 0.135385,0.36412 0.540963,0.29927 1.693248,-0.27076 3.152387,1.81214 2.760269,3.94025 -0.235802,1.27974 -0.949897,2.25833 -2.019166,2.76706 -0.829411,0.3946 -2.361482,0.45769 -3.519355,0.14492 z m 2.240942,-3.33787 c 0.09254,-0.20309 0.05859,-0.41689 -0.173124,-1.09035 -0.158528,-0.46074 -0.306069,-0.86739 -0.327868,-0.90366 -0.03739,-0.0623 -0.768206,0.1289 -1.294337,0.33847 -0.280784,0.11186 -0.663634,0.6952 -0.664205,1.01204 -4.93e-4,0.2734 0.401921,0.66387 0.810111,0.78611 0.16854,0.0504 0.582708,0.0959 0.920375,0.10081 0.547424,0.008 0.626413,-0.0182 0.729048,-0.2435 z m 28.488831,12.00677 c 1.612713,-0.40598 1.560712,-0.35581 1.170374,-1.12908 -1.129655,-2.23782 -3.099605,-5.00231 -3.370698,-4.73018 -0.123282,0.12374 -0.0806,2.02317 0.06955,3.09388 0.166111,1.18465 0.532755,2.82904 0.668625,2.99878 0.05575,0.0696 0.157714,0.10853 0.22657,0.0864 0.06887,-0.0222 0.624869,-0.16604 1.235584,-0.31977 z m 34.142149,-2.54257 c 0.85439,-0.37475 2.50589,-1.09656 3.66998,-1.60401 1.16411,-0.50745 2.24116,-1.01202 2.39346,-1.12128 0.15229,-0.10927 0.57586,-0.29741 0.94128,-0.41811 0.3654,-0.1207 1.1313,-0.45264 1.70201,-0.73763 0.5707,-0.28501 1.14706,-0.55163 1.28081,-0.59249 0.51792,-0.15821 3.80424,-1.76278 3.89563,-1.90204 0.0688,-0.10484 -0.054,-0.33328 -0.42733,-0.79456 -0.28811,-0.35608 -0.68196,-0.94677 -0.87521,-1.31261 -0.4124,-0.78078 -1.06271,-2.41094 -1.15374,-2.89219 -0.0994,-0.52553 -0.19877,-0.59843 -0.64688,-0.4747 -0.21496,0.0593 -0.84705,0.0887 -1.40468,0.0654 -1.12462,-0.0472 -1.87542,-0.31425 -2.68439,-0.95496 l -0.42893,-0.33973 -3.19265,1.58795 c -2.87239,1.42866 -3.20723,1.62226 -3.33826,1.93024 -0.42951,1.00965 0.0546,2.55851 1.62938,5.21233 0.63996,1.07849 0.65965,1.3037 0.13751,1.5737 -0.42932,0.22201 -0.51604,0.20604 -1.17061,-0.21567 -0.31933,-0.20575 -1.2,-0.61801 -1.95703,-0.91615 -1.69286,-0.66672 -1.69736,-0.66448 -1.6325,0.81152 0.035,0.79781 0.10616,1.11326 0.42673,1.89256 0.49509,1.20358 0.89637,1.88378 1.1113,1.88378 0.0939,0 0.86973,-0.30662 1.72412,-0.68137 z m -15.6762,-4.03946 c 0.95246,-0.40379 1.74119,-0.76591 3.29443,-1.51249 1.00447,-0.48282 1.04301,-0.51313 0.69144,-0.54406 -0.81461,-0.0717 -1.08382,-0.16114 -1.4486,-0.48142 -0.44977,-0.39492 -0.53648,-0.58868 -0.79791,-1.78312 -0.28288,-1.29237 -0.36837,-2.82403 -0.20153,-3.61025 0.19101,-0.90007 0.53299,-1.2009 2.09263,-1.84097 0.69277,-0.28428 1.43912,-0.5914 1.65852,-0.68247 0.46505,-0.19303 0.48291,-0.30798 0.16657,-1.07121 -0.27868,-0.67239 -0.29568,-0.67501 -1.82272,-0.28128 -1.27962,0.32992 -2.40573,0.37347 -2.90844,0.11247 -0.50662,-0.26303 -0.96455,-0.88622 -1.10086,-1.4981 -0.0665,-0.29834 -0.26653,-1.11686 -0.44458,-1.81895 -0.26837,-1.05812 -0.31445,-1.41476 -0.26943,-2.08458 0.0691,-1.02799 0.27783,-1.43877 0.86238,-1.69736 0.24832,-0.10983 2.38706,-0.75123 4.75277,-1.42533 2.36571,-0.6741 4.40899,-1.27311 4.54064,-1.33114 0.18387,-0.0811 0.23934,-0.1936 0.23934,-0.4857 0,-0.77064 -0.36383,-1.93773 -1.07396,-3.44502 -0.40076,-0.85064 -0.75999,-1.75553 -0.79828,-2.01088 -0.0606,-0.40379 -0.0991,-0.45759 -0.29542,-0.41308 -0.51306,0.11624 -5.82362,1.48491 -8.09759,2.08693 -4.567525,1.20923 -5.211743,1.37388 -5.850663,1.49531 -1.197891,0.22766 -4.680266,1.09248 -4.783404,1.18793 -0.123313,0.11411 0.165242,1.30493 0.53923,2.22533 0.140297,0.34527 0.255086,0.77212 0.255086,0.94857 0,0.24767 0.161812,0.4967 0.709835,1.09247 1.425258,1.54938 1.959927,2.4472 2.64745,4.44553 0.505448,1.4691 0.46101,2.71467 -0.1608,4.50711 -0.119882,0.34557 -0.217966,0.84272 -0.217966,1.10477 0,0.47955 0.998765,4.44297 1.172305,4.65207 0.05121,0.0618 0.490523,0.31425 0.976254,0.56119 1.468303,0.74651 3.260883,2.25567 4.150223,3.49407 0.18291,0.2547 0.40968,0.4631 0.50393,0.4631 0.0942,0 0.55284,-0.16174 1.01912,-0.35944 z m 33.97457,-4.38017 c 1.46774,-0.73456 2.66862,-1.38969 2.66862,-1.45582 0,-0.0661 -0.19653,-0.35331 -0.43673,-0.63817 -0.5061,-0.6002 -0.50782,-0.54762 0.0723,-2.20835 0.31618,-0.90522 0.40021,-1.31879 0.44332,-2.18189 0.031,-0.62147 0.001,-1.31395 -0.071,-1.66288 -0.11869,-0.57168 -0.14841,-0.61073 -0.67766,-0.88993 -0.49288,-0.26002 -0.69342,-0.29708 -1.83004,-0.33824 -0.70209,-0.0255 -1.63553,-0.007 -2.07434,0.0401 l -0.79782,0.0864 -0.0814,0.74463 c -0.0957,0.87596 -0.39557,1.54024 -1.20378,2.6667 -0.31838,0.44378 -0.55606,0.8438 -0.52816,0.88893 0.0279,0.0451 0.48321,0.26345 1.0118,0.48509 0.52859,0.22167 0.96106,0.45052 0.96106,0.50856 0,0.0668 -0.55719,0.0907 -1.51585,0.0652 -1.50939,-0.0401 -1.51599,-0.0393 -1.55017,0.20151 -0.0962,0.67812 1.19087,3.40971 2.05389,4.35891 0.33247,0.36567 0.66811,0.66486 0.74589,0.66486 0.0778,0 1.34228,-0.60103 2.81003,-1.33559 z m -27.73103,-0.73205 c 1.47083,-0.3499 3.97276,-1.03717 5.10884,-1.40337 0.27791,-0.0896 0.50461,-0.21887 0.50379,-0.28729 -8.4e-4,-0.0685 -0.17282,-0.57917 -0.38219,-1.13499 -0.47733,-1.2671 -1.39851,-4.73576 -1.48316,-5.58471 -0.035,-0.35104 -0.15716,-1.12066 -0.27147,-1.71028 -0.11434,-0.58961 -0.27465,-1.61271 -0.35627,-2.27354 -0.0817,-0.66085 -0.19521,-1.24836 -0.25242,-1.30558 -0.1109,-0.1109 -7.23832,1.88027 -7.55233,2.10987 -0.15519,0.11349 -0.15312,0.19558 0.0238,0.94619 0.34858,1.47857 0.3739,1.54188 0.61651,1.54188 0.12315,0 0.92271,-0.14957 1.77679,-0.33239 1.37479,-0.29429 1.60614,-0.31782 2.01751,-0.20527 0.62641,0.17139 1.41451,0.92133 1.71486,1.63187 0.12895,0.30503 0.40271,0.93146 0.60836,1.39206 0.32168,0.72047 0.3677,0.9233 0.32943,1.45227 -0.0822,1.13666 -0.61637,1.53749 -3.62667,2.72147 -1.21136,0.47643 -1.21582,0.48381 -1.03101,1.70651 0.14833,0.98135 0.26107,1.23855 0.5097,1.16271 0.0988,-0.0302 0.88449,-0.22249 1.74591,-0.42741 z M 92.835832,167.8852 c 0,-0.31504 -0.176592,-0.80494 -0.289899,-0.80424 -0.17244,0.001 -0.904152,0.76254 -0.814386,0.84751 0.115583,0.10941 0.4257,0.18711 0.811752,0.2034 0.242411,0.0104 0.292533,-0.032 0.292533,-0.24667 z m 49.055068,-1.66374 c 0.85954,-0.43218 4.76892,-2.52026 5.33503,-2.84957 0.22371,-0.13013 0.28138,-0.22658 0.23109,-0.38652 -0.0369,-0.11722 -0.10282,-0.38205 -0.14652,-0.58853 -0.0689,-0.32518 -0.64722,-1.38184 -1.45385,-2.65631 -0.46769,-0.73898 -0.64728,-1.81447 -0.43515,-2.6062 0.13749,-0.51323 0.12851,-0.57412 -0.25581,-1.73622 -0.21909,-0.66239 -0.42403,-1.23008 -0.45548,-1.26151 -0.0315,-0.0314 -0.78993,0.32665 -1.68552,0.79575 -0.89561,0.4691 -1.97542,1.02676 -2.39959,1.23924 -0.42417,0.21247 -0.77123,0.43035 -0.77123,0.48418 0,0.11778 0.14486,0.24513 0.63825,0.56113 0.44079,0.2823 0.74852,0.87033 1.07018,2.04493 0.2087,0.76213 0.22701,1.02323 0.17532,2.49983 -0.0601,1.71923 -0.21171,2.52351 -0.7639,4.05432 -0.14787,0.4099 -0.26884,0.76636 -0.26884,0.79212 0,0.13628 0.41513,9.5e-4 1.18602,-0.38664 z m -22.12919,-1.16858 c 2.5227,-1.26219 3.39118,-1.75156 3.39118,-1.91088 0,-0.0443 -0.25669,-0.51505 -0.57042,-1.04596 -0.78829,-1.33402 -1.21561,-2.6796 -1.39542,-4.39395 -0.22582,-2.15305 0.0519,-4.25762 0.74122,-5.61803 0.61464,-1.21293 2.23554,-2.82962 3.20841,-3.20003 1.00878,-0.3841 2.68312,-0.42911 3.81334,-0.10252 0.40938,0.1183 0.82366,0.21507 0.92064,0.21507 0.25327,0 3.37436,-2.94062 3.45279,-3.25315 0.0917,-0.36538 -0.16637,-0.70751 -1.00107,-1.32718 -1.46177,-1.08517 -4.54716,-2.38252 -6.82715,-2.87067 -1.22958,-0.26326 -1.18515,-0.2681 -3.44597,0.37491 -0.90957,0.25869 -1.85554,0.52469 -2.10218,0.5911 -0.74658,0.20103 -2.14943,1.67212 -2.88292,3.02317 -0.24967,0.45986 -0.9373,1.8497 -1.95015,3.94172 -0.38351,0.79214 -0.75707,2.61189 -0.84259,4.10466 -0.0998,1.74081 0.11357,3.23286 0.88057,6.15939 0.11502,0.4388 0.40685,1.63552 0.64857,2.65939 0.2417,1.02386 0.54205,2.18387 0.66744,2.57779 0.21628,0.67943 0.55308,1.35811 0.67395,1.35811 0.0306,0 1.20948,-0.57731 2.61976,-1.28294 z m 8.90221,-2.03122 c 0.61842,-0.15226 0.8259,-0.2913 1.26769,-0.8496 0.61687,-0.77955 0.44082,-0.77721 -1.1408,0.015 -0.81911,0.41033 -1.48927,0.7936 -1.48927,0.85171 0,0.14304 0.74996,0.13354 1.36238,-0.0171 z m -0.40499,-2.4091 c 1.19939,-0.61137 2.2846,-1.17596 2.4116,-1.25467 0.13961,-0.0865 0.29657,-0.36899 0.397,-0.71446 0.22159,-0.76225 0.48291,-1.06812 1.20394,-1.40921 0.52452,-0.24814 0.79154,-0.29495 2.04512,-0.35844 1.1808,-0.0599 1.51885,-0.11451 1.86732,-0.30204 0.75566,-0.40668 0.72645,-0.3546 0.5876,-1.04794 -0.19564,-0.97687 -0.64324,-2.59812 -0.86282,-3.12519 -0.10969,-0.26328 -0.41854,-1.29127 -0.68633,-2.28441 -0.26781,-0.99316 -0.50247,-1.82127 -0.52145,-1.84025 -0.0189,-0.0189 -0.6792,0.60977 -1.46712,1.39723 -1.5494,1.5485 -2.36142,2.08917 -3.13768,2.08917 -0.22152,0 -0.82499,-0.14359 -1.34104,-0.31911 -1.66702,-0.56701 -2.68602,-0.38286 -3.7458,0.67693 -0.3613,0.3613 -0.75618,0.85151 -0.87753,1.08937 -0.5846,1.14592 -0.71682,3.58228 -0.26492,4.88217 0.12204,0.35104 0.28253,0.85366 0.35664,1.11694 0.32547,1.15602 1.33074,2.70847 1.6724,2.58265 0.10031,-0.0369 1.16368,-0.56737 2.36307,-1.17874 z m 23.86098,0.0192 c 2.9755,-1.71262 4.11581,-2.38634 4.11581,-2.43177 0,-0.0214 -0.14187,-0.6289 -0.31528,-1.35009 -0.1734,-0.72118 -0.43526,-2.00535 -0.58191,-2.85369 -0.14666,-0.84835 -0.38443,-2.11688 -0.52838,-2.81896 -0.14397,-0.70208 -0.29324,-1.49596 -0.33173,-1.7642 -0.11801,-0.82255 -0.11207,-0.82241 -1.49889,-0.0375 -0.69562,0.39375 -1.40009,0.82855 -1.56546,0.96621 -0.1654,0.13766 -0.36676,0.25029 -0.44749,0.25029 -0.23669,0 -2.51028,1.29558 -2.57653,1.4682 -0.0333,0.0867 0.067,0.66537 0.22265,1.28604 0.15571,0.62066 0.28312,1.25782 0.28312,1.41589 -10e-6,0.21902 0.10896,0.36242 0.45786,0.60245 0.79623,0.54782 2.44894,2.46174 2.27551,2.63519 -0.0352,0.0352 -0.2218,-0.0345 -0.41471,-0.15497 -1.60349,-1.0009 -1.86993,-1.06486 -2.01944,-0.48473 -0.0471,0.18279 -0.15762,0.3921 -0.24563,0.46512 -0.224,0.18592 -0.2035,0.40386 0.15361,1.63331 0.17248,0.5938 0.36521,1.31897 0.4283,1.61151 0.15318,0.71038 0.18876,0.79781 0.32476,0.79781 0.0638,0 1.08249,-0.55631 2.26383,-1.23624 z m 8.27852,-4.96737 c 2.34228,-1.47652 2.96447,-1.88051 2.96447,-1.92491 0,-0.0206 -0.25169,-0.16058 -0.55932,-0.31108 -0.65979,-0.3228 -0.96086,-0.76056 -0.95458,-1.38792 0.002,-0.24074 -0.0418,-0.65279 -0.0981,-0.91565 -0.21559,-1.00524 -0.5144,-3.20516 -0.71192,-5.24135 -0.0498,-0.5128 -0.11719,-0.95913 -0.14989,-0.99182 -0.12131,-0.1213 -0.76484,0.31518 -1.55718,1.05617 -0.44877,0.41969 -1.14948,0.997 -1.55717,1.28293 -0.40767,0.28592 -0.80234,0.59571 -0.87705,0.6884 -0.16408,0.20357 -0.12671,0.5077 0.35461,2.88577 0.19538,0.96537 0.43028,2.2339 0.52198,2.81896 0.2682,1.71108 0.61086,3.13809 0.75356,3.13809 0.0712,0 0.91296,-0.49391 1.87058,-1.09759 z M 57.75141,154.85472 c 0.720584,-0.17146 3.033438,-0.7426 5.139675,-1.26925 2.106239,-0.52663 6.079369,-1.49252 8.82918,-2.1464 2.749811,-0.65388 5.087526,-1.23547 5.194924,-1.2924 0.373556,-0.19804 0.0688,-0.22107 -1.282471,-0.0969 -1.886109,0.17326 -3.443728,0.30512 -5.188962,0.43924 -4.101317,0.31519 -7.988076,0.88482 -13.403331,1.96433 -2.190723,0.4367 -4.402778,1.06312 -4.659016,1.31936 -0.07908,0.079 0.04321,0.18159 0.411687,0.34511 0.968246,0.42967 2.860842,1.03529 3.256303,1.042 0.215523,0.003 0.981427,-0.13362 1.702011,-0.30505 z m 82.92737,-0.60385 c 2.53242,-1.3214 3.38147,-1.77616 3.47484,-1.86115 0.0592,-0.0537 0.0276,-0.42749 -0.0797,-0.94329 -0.0976,-0.46978 -0.2561,-1.24907 -0.35194,-1.73177 -0.58263,-2.93416 -1.99641,-8.58382 -2.32255,-9.28127 -0.13678,-0.29253 -0.3258,-0.79515 -0.42001,-1.11694 -0.0942,-0.32179 -0.20765,-0.64225 -0.25211,-0.71215 -0.0824,-0.12957 -0.96317,0.10555 -3.63911,0.97147 -0.61432,0.1988 -1.30144,0.39242 -1.52694,0.43028 -0.35176,0.0591 -0.40295,0.10184 -0.36041,0.30128 0.16014,0.75076 2.0554,7.47544 2.26908,8.05105 0.32463,0.87445 1.2474,4.19242 1.42006,5.10604 0.11183,0.59179 0.45553,1.38287 0.60083,1.38287 0.0248,0 0.55936,-0.2684 1.18805,-0.59642 z m 26.13653,-2.77283 c 0.79195,-0.49673 3.26426,-2.15406 6.40063,-4.29071 0.29984,-0.20427 0.87885,-0.62118 1.28668,-0.92646 l 0.74152,-0.55507 -0.23563,-0.881 -0.23562,-0.88101 -0.4128,0.0273 c -0.22705,0.0149 -0.91545,0.1473 -1.52977,0.29401 -3.3923,0.81021 -4.61587,0.95891 -5.35376,0.65059 -0.44276,-0.18499 -0.88326,-0.7074 -1.02409,-1.2145 -0.0603,-0.21757 -0.11015,-0.79052 -0.11047,-1.27319 -3.6e-4,-0.55197 -0.0429,-0.87761 -0.11439,-0.87761 -0.0626,0 -0.31391,0.13533 -0.55847,0.30075 -0.24456,0.16541 -0.86888,0.55479 -1.38733,0.86531 l -0.94264,0.56457 0.0759,1.2356 c 0.0419,0.6796 0.12041,1.29013 0.17464,1.35676 0.0541,0.0667 0.3172,0.1762 0.58437,0.24347 0.59939,0.15093 3.12456,1.29042 3.12456,1.40997 0,0.14222 -2.01859,0.0915 -2.76577,-0.0695 -0.38028,-0.082 -0.72945,-0.11165 -0.7759,-0.0661 -0.0464,0.0455 -0.0358,0.3896 0.0235,0.76438 0.0593,0.37479 0.13321,0.98796 0.16407,1.36258 0.061,0.74218 0.1486,0.89486 1.12412,1.96223 0.30215,0.3306 0.60223,0.60108 0.66687,0.60108 0.0647,0 0.55047,-0.27156 1.07967,-0.60348 z m -78.319157,-0.0458 c -0.0173,-0.25673 -0.07589,-0.5112 -0.130191,-0.56549 -0.122543,-0.12256 -1.717359,0.25825 -1.670489,0.39886 0.03866,0.11598 1.571226,0.70405 1.725769,0.66221 0.05851,-0.0158 0.09221,-0.23886 0.07491,-0.49558 z M 149.48332,149.626 c 0.64223,-0.35591 1.28735,-0.75754 1.43362,-0.89249 0.27456,-0.25333 0.92648,-0.60802 1.36993,-0.74532 0.48452,-0.15004 2.26151,-1.25536 2.4289,-1.51084 0.0926,-0.1415 0.65215,-0.58773 1.24317,-0.99163 1.35575,-0.92649 1.87002,-1.42794 2.58431,-2.51988 0.70221,-1.07347 1.14209,-2.00288 1.36827,-2.89102 0.39009,-1.53166 -0.29885,-2.68177 -2.64637,-4.41785 -1.21374,-0.89759 -1.93041,-1.21036 -3.3306,-1.4535 -1.40324,-0.24366 -2.09768,-0.19438 -3.73952,0.26544 -0.5098,0.14277 -1.71263,0.45667 -2.67295,0.69756 -2.05646,0.51583 -2.17486,0.56645 -2.07122,0.88537 0.0747,0.22987 0.27877,1.12977 0.67998,2.99864 0.11304,0.52655 0.20696,1.14228 0.20874,1.36825 0.003,0.36734 1.52391,9.21015 1.66302,9.66821 0.0311,0.10243 0.11425,0.18617 0.18479,0.18617 0.0705,0 0.65371,-0.29119 1.29593,-0.64711 z m 2.60375,-2.42523 c 0,-0.0584 0.0479,-0.13596 0.10638,-0.17212 0.0585,-0.0361 0.10637,-0.0179 0.10637,0.0406 0,0.0584 -0.0479,0.13595 -0.10637,0.17211 -0.0586,0.0361 -0.10638,0.0178 -0.10638,-0.0406 z m -0.80893,-1.72319 c -0.42149,-0.12229 -0.82353,-0.52517 -1.10566,-1.10798 -0.30148,-0.62277 -0.7448,-2.77051 -0.7448,-3.60831 0,-0.67776 0.003,-0.68381 0.44646,-1.01017 0.28935,-0.21279 0.57195,-0.32833 0.8031,-0.32833 0.19615,0 0.50671,-0.0776 0.69013,-0.17245 0.55337,-0.28617 1.63714,-0.15373 2.38167,0.29105 0.92068,0.54999 1.70018,1.3071 1.90915,1.85428 0.54857,1.4364 -0.41602,2.96332 -2.44793,3.87498 -0.73932,0.33171 -1.2964,0.39137 -1.93212,0.20693 z m 1.56836,-2.96989 0.25113,-0.21276 -0.25113,-0.21274 c -0.46026,-0.38995 -0.76292,-0.19644 -0.55365,0.35397 0.12933,0.3402 0.22235,0.35221 0.55365,0.0716 z m -39.13556,3.42943 c 0.2188,-0.33576 0.61229,-0.91655 0.87443,-1.29064 0.26215,-0.37407 0.45364,-0.71732 0.42555,-0.76277 -0.0443,-0.0718 -2.72793,0.58023 -2.95043,0.71679 -0.0454,0.0279 0.0264,0.18134 0.15955,0.34107 0.13316,0.15971 0.38254,0.58696 0.55418,0.94939 0.17166,0.36245 0.36314,0.65847 0.42551,0.65783 0.0624,-6.5e-4 0.29244,-0.27589 0.51121,-0.61167 z m -69.140946,-1.69343 c 0.614086,-0.38913 3.921094,-1.97463 5.290075,-2.53626 0.614319,-0.25201 1.720879,-0.62808 2.459023,-0.83569 0.738141,-0.20761 1.910934,-0.63635 2.606203,-0.95277 0.695268,-0.31639 1.491503,-0.67445 1.769409,-0.79568 0.59153,-0.25804 0.587857,-0.23654 0.28763,-1.68333 -0.326863,-1.57515 -0.739272,-4.47456 -0.739514,-5.1991 -1.46e-4,-0.44142 0.06718,-0.76557 0.217118,-1.04532 0.227652,-0.42475 0.202898,-0.75311 -0.06452,-0.85573 -0.240528,-0.0922 -1.541207,0.1855 -3.523795,0.7526 -2.703284,0.77324 -3.533197,0.71352 -4.12851,-0.29717 -0.193784,-0.32899 -0.211003,-0.53189 -0.193136,-2.27595 0.02312,-2.25761 0.136935,-3.08026 0.536595,-3.87878 0.259143,-0.51777 0.417009,-0.66932 1.305362,-1.2532 1.027353,-0.67523 1.132073,-0.80432 1.018733,-1.25591 -0.108718,-0.43317 -0.371725,-0.48929 -1.408942,-0.30066 -0.516717,0.094 -1.298504,0.17617 -1.737303,0.18266 -0.665519,0.009 -0.874517,-0.0316 -1.260345,-0.25042 -0.977031,-0.55387 -1.291147,-1.78233 -1.092875,-4.27408 0.124865,-1.56925 0.300481,-2.28673 0.782671,-3.19759 0.77331,-1.46078 1.947225,-2.07033 5.772387,-2.99733 0.877599,-0.21267 1.829429,-0.46293 2.115179,-0.55612 l 0.519544,-0.16944 -0.07004,-0.9175 c -0.07048,-0.92325 -0.296264,-2.08857 -0.430713,-2.22303 -0.03981,-0.0398 -0.854537,0.0593 -1.810499,0.22031 -2.582621,0.43493 -6.840895,1.69457 -8.376371,2.47784 -0.426951,0.2178 -0.977025,0.49503 -1.222386,0.61611 l -0.446112,0.22011 0.03182,3.93843 c 0.03638,4.50331 0.2636,10.73081 0.65795,18.03318 0.150077,2.77908 0.296343,6.46499 0.325034,8.19092 0.02869,1.72595 0.07118,3.19793 0.09442,3.27105 0.06263,0.1971 0.216276,0.16443 0.715892,-0.15215 z m 134.974336,-1.69188 c 0.28575,-0.20977 0.51953,-0.44323 0.51953,-0.51882 0,-0.14201 -1.41301,-1.22733 -1.59789,-1.22733 -0.14477,0 -0.12791,0.38286 0.0444,1.01057 0.18875,0.68724 0.36039,1.11695 0.44616,1.11695 0.0376,0 0.30195,-0.17163 0.58769,-0.38137 z m -8.68196,-0.36091 c 2.07466,-0.51767 4.1835,-0.95974 4.57833,-0.95974 h 0.36814 l 4e-4,-0.77121 c 4.1e-4,-0.78706 0.20672,-1.33273 0.61749,-1.63308 0.13063,-0.0954 0.14442,-0.19437 0.0655,-0.46949 -0.10613,-0.37005 -0.10738,-0.37102 -0.98807,-0.7548 -0.34661,-0.15105 -0.72245,-0.42633 -0.95748,-0.70129 l -0.38688,-0.45263 -1.17004,0.77554 c -0.8859,0.58722 -1.16366,0.82562 -1.14382,0.98178 0.20403,1.60549 0.13183,2.05296 -0.42024,2.60503 -0.34615,0.34616 -1.24848,0.83651 -1.94623,1.05766 -0.50436,0.15985 -0.69145,0.29309 -0.69145,0.49246 0,0.23487 0.67179,0.17975 2.07433,-0.17023 z m -37.92292,-0.65084 c 0,-0.27434 -0.35757,-1.33496 -0.50758,-1.50562 -0.13825,-0.15728 -0.35594,-0.18616 -1.40333,-0.18616 -1.83445,0 -1.91045,0.12921 -0.45815,0.77876 0.63016,0.28184 1.36115,0.62664 1.62444,0.76623 0.52916,0.28054 0.74462,0.32302 0.74462,0.14679 z m 33.17294,-1.44141 c 3.23145,-1.86274 3.20754,-1.84823 3.20754,-1.94804 0,-0.23595 -0.30916,-0.3267 -0.75938,-0.22289 -0.25517,0.0589 -0.78339,0.10815 -1.17381,0.10958 -0.61273,0.002 -0.75519,-0.0355 -1.04099,-0.27601 -0.44123,-0.37126 -0.5487,-0.60413 -1.00717,-2.18203 -0.27047,-0.9308 -0.36791,-1.43744 -0.31712,-1.64882 0.24685,-1.02756 0.73684,-1.32017 2.80979,-1.67788 1.47253,-0.25411 3.20389,-0.69368 3.62955,-0.92147 0.25855,-0.13838 0.25344,-0.47985 -0.021,-1.40127 l -0.22035,-0.73993 -0.39131,0.0697 c -0.21522,0.0384 -1.08541,0.23102 -1.93375,0.42822 -0.84835,0.19721 -2.75352,0.63373 -4.23372,0.97005 -1.4802,0.33631 -2.76328,0.66414 -2.85127,0.72847 -0.1402,0.10252 -0.12005,0.26145 0.16288,1.28437 0.34162,1.2351 0.73578,3.77307 1.02387,6.59253 0.24895,2.43665 0.24616,2.42165 0.43673,2.34853 0.0898,-0.0345 1.29564,-0.71539 2.67948,-1.5131 z m 16.2582,0.31391 c 0.51575,-0.39173 1.54768,-1.18082 2.29319,-1.75355 0.74548,-0.57273 1.62005,-1.21702 1.94345,-1.43174 0.36319,-0.24114 0.61771,-0.49598 0.6657,-0.66649 0.12439,-0.44215 0.06,-1.52735 -0.11538,-1.94734 -0.29187,-0.69856 -0.49943,-0.76149 -2.77686,-0.84174 -2.3333,-0.0823 -2.89165,-0.21421 -3.62045,-0.85572 -0.2547,-0.22419 -0.51628,-0.40762 -0.5813,-0.40762 -0.0876,0 -3.55224,2.27492 -3.82871,2.51395 -0.024,0.0208 0.0433,0.13379 0.14946,0.25116 0.23854,0.26359 0.86037,0.27816 2.23448,0.0524 2.33374,-0.38344 3.7268,-0.0213 4.3092,1.12032 0.65564,1.28517 -0.14523,2.71396 -1.97101,3.51635 -0.43766,0.19233 -0.79574,0.38996 -0.79574,0.43919 0,0.0928 0.9392,0.72305 1.07764,0.72305 0.0432,0 0.50057,-0.3205 1.01633,-0.71221 z m -3.27768,-2.41959 c 0.38398,-0.20119 0.11384,-0.2857 -0.5256,-0.16443 -0.63367,0.12016 -0.68294,0.14755 -0.57624,0.32021 0.0875,0.14166 0.69922,0.0551 1.10184,-0.15578 z m -36.00062,-1.25617 c -0.0897,-0.29191 -0.13463,-0.3469 -0.21643,-0.26511 -0.0916,0.0917 0.0586,0.50446 0.18361,0.50446 0.0613,0 0.0751,-0.10164 0.0329,-0.23935 z m 29.55508,-0.46165 c 0.53942,-0.32703 1.01717,-0.62912 1.06169,-0.67128 0.0977,-0.0925 -0.23776,-2.35087 -0.34921,-2.35087 -0.0431,0 -0.33541,0.11725 -0.64965,0.26056 -0.74499,0.33977 -2.21754,0.75754 -3.72541,1.05691 -1.15707,0.22972 -1.20607,0.25035 -1.17766,0.49601 0.0466,0.40334 0.15785,0.44028 0.92364,0.30693 1.36087,-0.23698 2.21468,0.0985 2.62791,1.03272 0.11279,0.255 0.22823,0.46363 0.2565,0.46363 0.0283,0 0.49275,-0.26756 1.03219,-0.59461 z m -107.096893,-0.421 c 0.643573,-0.1991 2.00784,-0.57519 3.031706,-0.83575 1.845158,-0.46956 1.865334,-0.47786 2.287888,-0.94182 0.55957,-0.61441 1.08496,-1.70954 1.2776,-2.66306 0.239306,-1.18451 0.361488,-3.20396 0.258777,-4.27713 -0.216423,-2.26127 -0.859362,-3.19032 -5.153162,-7.44629 -2.371702,-2.35081 -2.5707,-2.63816 -2.887344,-4.16929 -0.296141,-1.432 -0.0465,-2.52051 0.727775,-3.17337 0.622485,-0.52487 0.981643,-0.61627 2.1465,-0.54628 l 1.051487,0.0633 -0.07103,-0.69322 c -0.03907,-0.38127 -0.16518,-1.15083 -0.280262,-1.71014 -0.265684,-1.29125 -0.262771,-1.67698 0.01916,-2.53579 0.12562,-0.38267 0.198169,-0.72599 0.161217,-0.76294 -0.03695,-0.0371 -0.558584,0.16145 -1.159187,0.44092 -0.834607,0.38834 -1.254984,0.52084 -1.783446,0.56214 -0.790887,0.0619 -0.989729,0.14914 -2.233889,0.9812 -0.497306,0.33258 -1.137522,0.74038 -1.422704,0.9062 -0.702967,0.40875 -1.621759,1.27703 -2.631704,2.48699 -0.904131,1.08319 -1.277239,1.75832 -1.464935,2.65071 -0.301009,1.43111 -0.120763,1.62854 2.381261,2.60829 2.123204,0.83141 2.921371,1.32721 4.225142,2.62458 1.318324,1.31185 1.760253,2.37677 1.654597,3.98712 -0.06504,0.99123 -0.430858,1.69664 -1.400448,2.70044 -0.906759,0.93878 -1.685754,1.50944 -3.060548,2.24206 -0.565344,0.30127 -1.086996,0.61898 -1.159224,0.70601 -0.141957,0.17104 -0.09392,1.94904 0.121942,4.51322 0.156666,1.86105 0.222099,2.06959 0.709999,2.26293 0.352354,0.13961 1.265031,0.32113 2.206186,0.43876 0.558857,0.0698 1.24456,-0.0478 2.44664,-0.41966 z m 66.957163,-0.002 c 1.47121,-0.35533 2.02807,-0.53293 2.07787,-0.66265 0.0901,-0.23491 0.2857,-1.6467 0.85771,-6.19184 0.48788,-3.87673 0.80852,-5.90381 1.28725,-8.13776 0.369,-1.7219 2.2183,-9.21669 2.49615,-10.11624 0.20477,-0.66298 0.20954,-0.74716 0.0601,-1.06043 -0.43587,-0.91403 -1.89009,-2.00549 -3.19103,-2.39499 -0.41956,-0.12562 -0.9217,-0.2955 -1.11587,-0.37751 -0.19415,-0.082 -0.39012,-0.12619 -0.43548,-0.0982 -0.0453,0.028 -0.1126,0.99817 -0.14946,2.15586 -0.0648,2.03649 -0.22776,3.41082 -0.70986,5.98762 -0.11494,0.61432 -0.37628,2.43707 -0.58076,4.05056 -0.41443,3.27003 -0.88833,5.79191 -1.60272,8.52894 -1.61328,6.18098 -2.16699,8.4772 -2.04595,8.48449 0.0146,8.8e-4 0.21808,0.0705 0.45211,0.15489 0.23402,0.0842 0.46252,0.1554 0.50777,0.15797 0.0452,0.002 0.98671,-0.21378 2.09212,-0.48076 z m -7.96131,-0.17254 c 0.31254,-0.58401 0.0261,-3.73674 -0.40661,-4.47532 -0.19929,-0.34014 -0.2826,-0.40254 -0.88046,-0.65948 -0.20476,-0.088 -0.44411,-0.2058 -0.53187,-0.26179 -0.0877,-0.0559 -0.48973,-0.18562 -0.89324,-0.2881 -0.85052,-0.21598 -1.24093,-0.50442 -1.53324,-1.13273 -0.19545,-0.4201 -0.20025,-0.51627 -0.0734,-1.46547 0.1071,-0.8013 0.22522,-1.19449 0.55918,-1.86157 0.23286,-0.46515 0.4599,-0.96538 0.50454,-1.11165 0.0446,-0.14627 0.35905,-0.82515 0.69873,-1.50861 0.33967,-0.68347 0.88579,-1.87305 1.21358,-2.64353 0.32779,-0.77046 0.77975,-1.76699 1.00435,-2.21453 0.22461,-0.44753 0.60923,-1.29238 0.85473,-1.87746 0.24549,-0.58505 0.84781,-1.87752 1.33851,-2.87213 1.12748,-2.28534 2.23642,-4.69034 2.56399,-5.5606 0.28664,-0.76152 0.30333,-1.78922 0.0314,-1.93971 -0.19769,-0.10946 -1.98635,-0.48046 -3.34393,-0.69359 -0.98115,-0.15405 -1.95587,-0.36339 -4.95393,-1.06397 -0.99339,-0.23213 -1.36686,-0.26275 -3.20485,-0.26275 -1.53728,0 -2.10789,0.0347 -2.18567,0.13297 -0.0579,0.0732 -0.13596,0.37497 -0.17349,0.67075 -0.0676,0.53193 -0.0614,0.54693 0.57442,1.38287 0.80774,1.06214 1.33746,2.13491 1.49414,3.02581 0.0669,0.38029 0.15424,0.85898 0.19414,1.06377 l 0.0726,0.37232 0.68734,0.009 c 1.39511,0.0183 2.18694,0.6619 2.08292,1.69299 -0.0798,0.79139 -0.63107,2.37161 -1.39152,3.98909 -0.37134,0.78983 -0.87859,1.98657 -1.12722,2.65939 -0.50637,1.37035 -2.07846,4.99787 -2.23359,5.1539 -0.0552,0.0555 -0.10041,0.16967 -0.10041,0.25354 0,0.18372 0.70566,1.59744 0.91619,1.83552 0.174,0.19674 0.78365,1.94838 0.79044,2.27103 0.002,0.12066 0.11863,0.41085 0.25799,0.64489 1.23506,2.07401 1.26957,3.304 0.10971,3.90994 -0.37112,0.19387 -0.71782,0.23488 -2.71258,0.32078 -1.2579,0.0542 -2.35236,0.11829 -2.43215,0.1425 -0.12033,0.0364 -0.11818,0.0845 0.0127,0.28202 0.13642,0.2059 0.33552,0.26168 1.47476,0.41321 2.62664,0.34933 4.80439,0.74536 7.80596,1.41949 2.54353,0.57126 2.75301,0.58889 2.93589,0.24721 z m 13.88822,-1.26317 c 0.41612,-0.15821 0.14281,-0.30902 -0.56384,-0.31113 -0.54524,-0.002 -0.78014,0.16969 -0.61003,0.44494 0.0732,0.11842 0.69769,0.0473 1.17387,-0.13381 z m 52.95113,-1.10509 c 0.73529,-0.58204 1.33689,-1.09655 1.33689,-1.14334 0,-0.0469 -0.40456,-0.59467 -0.89904,-1.21749 -0.99922,-1.25856 -1.65398,-2.40255 -1.65398,-2.88975 0,-0.46447 0.51365,-0.8717 1.09853,-0.87091 0.24416,3.3e-4 0.6354,0.0513 0.86943,0.11342 0.74725,0.19818 2.92533,1.07037 2.92533,1.17143 0,0.11811 -1.00618,0.11588 -2.23389,-0.005 -0.49731,-0.0489 -0.94214,-0.0534 -0.98854,-0.0104 -0.10704,0.10015 0.82659,1.48807 1.51151,2.2469 0.47938,0.53114 0.54025,0.56688 0.74991,0.44049 0.49164,-0.29638 5.27577,-4.08172 7.29036,-5.76834 2.33847,-1.95777 4.94646,-4.31738 4.94646,-4.47538 0,-0.14001 -0.48736,-0.008 -1.09483,0.29486 -0.29867,0.14929 -1.26777,0.40557 -2.34027,0.6189 -1.00677,0.20027 -2.60276,0.57997 -3.54664,0.8438 -2.46598,0.68926 -4.92597,1.25959 -8.07042,1.87106 -3.29612,0.64094 -4.52097,0.91086 -4.52097,0.99622 0,0.1746 0.66361,1.49387 0.74184,1.47481 0.13796,-0.0337 0.14162,0.11116 0.006,0.24656 -0.0664,0.0664 -0.0624,0.34811 0.0113,0.79249 0.2468,1.48977 -0.22231,2.13445 -1.93614,2.66077 -0.61066,0.18753 -1.15093,0.37837 -1.20061,0.42408 -0.0496,0.0456 0.38112,0.11643 0.95738,0.15719 1.78529,0.12622 2.56274,0.38589 3.28527,1.09727 0.33882,0.33357 0.77577,1.11385 1.04334,1.86305 0.0381,0.10671 0.138,0.17851 0.22198,0.15956 0.0839,-0.0189 0.7543,-0.51067 1.48958,-1.09272 z m -31.63956,0.82617 c 0,-0.23284 -0.40986,-1.75115 -0.52145,-1.93172 -0.0693,-0.11212 -0.25483,-0.0929 -0.95244,0.0982 -0.4765,0.1306 -0.86629,0.28976 -0.86618,0.35371 1e-4,0.064 0.20353,0.24497 0.45209,0.40225 0.24854,0.15727 0.73912,0.50305 1.09016,0.76838 0.70741,0.5347 0.79782,0.56974 0.79782,0.30919 z m 17.75088,-0.77093 c 2.01018,-1.19765 2.61879,-1.6317 2.63121,-1.87649 0.0317,-0.62659 0.18856,-1.01885 0.58942,-1.47425 0.56358,-0.64026 0.89845,-0.79964 2.69707,-1.28368 0.81909,-0.22042 1.52317,-0.45391 1.56462,-0.51885 0.19744,-0.30941 -0.32586,-1.48748 -0.7606,-1.7123 -0.18237,-0.0943 -0.36639,-0.14995 -0.40892,-0.12365 -0.0426,0.0263 -1.08228,0.26901 -2.31054,0.53938 -1.22827,0.2704 -2.47724,0.56121 -2.77551,0.64627 -1.24954,0.35636 -2.45642,2.38613 -2.68629,4.51787 -0.11064,1.02604 -0.0352,2.0228 0.1531,2.0228 0.0381,0 0.626,-0.33171 1.30644,-0.7371 z M 76.028479,133.6343 c 0.965359,-0.13986 2.473234,-0.33503 3.350834,-0.43373 1.951569,-0.21947 2.122533,-0.27583 2.029345,-0.66904 -0.03773,-0.15918 -0.111855,-2.20418 -0.164727,-4.54446 -0.05288,-2.34025 -0.129897,-4.6932 -0.171167,-5.22877 -0.0871,-1.13046 0.04595,-1.82337 0.452632,-2.35725 0.341718,-0.44858 0.675335,-0.5968 2.065014,-0.91745 0.619414,-0.14292 1.405262,-0.38327 1.746331,-0.53411 0.88743,-0.39246 2.315924,-1.37027 2.769,-1.89538 0.778431,-0.90221 1.337235,-2.3153 1.336697,-3.38023 -6.64e-4,-1.3088 -0.217865,-1.96423 -1.583594,-4.77861 l -0.902093,-1.85895 -1.182516,-1.18686 c -1.025347,-1.02911 -1.302693,-1.24414 -2.086709,-1.61784 -1.613641,-0.76917 -1.919085,-0.81783 -5.106031,-0.8134 -3.194796,0.004 -3.793197,0.0951 -4.996464,0.75642 -0.94535,0.51963 -1.156855,0.70214 -1.623157,1.40059 -0.687767,1.03018 -0.781723,1.4917 -0.619177,3.04143 0.15729,1.49959 0.115923,1.794 -0.315313,2.24394 -0.27974,0.29188 -0.303685,0.3776 -0.280487,1.00395 l 0.02536,0.68484 0.492349,0.009 c 0.330918,0.006 0.568381,0.0781 0.724239,0.2191 0.459486,0.41584 0.528955,0.70859 0.534586,2.25282 0.003,0.80737 0.06567,2.04237 0.1394,2.74445 0.158701,1.51128 0.08516,2.05657 -0.36382,2.69758 -0.284699,0.40648 -0.306273,0.48525 -0.174803,0.63826 1.584185,1.84377 2.077409,2.68531 2.487719,4.24463 0.561222,2.13284 0.293541,6.15798 -0.555245,8.34929 -0.09105,0.23506 -0.152271,0.23724 1.971793,-0.0704 z m 1.986281,-16.70312 c -0.982751,-0.26416 -1.750877,-0.9987 -1.998797,-1.9114 -0.181453,-0.66801 0.02787,-2.92735 0.343047,-3.70267 0.06441,-0.15846 0.375513,-0.48319 0.691325,-0.72163 0.743766,-0.56156 1.46262,-0.7221 2.404015,-0.53688 0.930309,0.18301 1.291111,0.39712 2.276056,1.35059 2.14397,2.07545 2.140584,3.60097 -0.01083,4.87781 -1.234936,0.73292 -2.534192,0.95883 -3.704819,0.64418 z m 2.062868,-2.62647 c 0.288753,-0.12421 0.525004,-0.29366 0.525004,-0.37652 0,-0.0829 -0.311149,-0.48196 -0.691442,-0.88689 -0.380293,-0.40491 -0.691441,-0.78038 -0.691441,-0.83438 0,-0.12529 -0.368521,-0.22447 -0.50735,-0.13656 -0.147935,0.0937 -0.334643,2.04341 -0.217764,2.27404 0.133646,0.2637 0.923781,0.24389 1.582993,-0.0397 z m 65.589212,18.41966 c 2.82199,-0.6869 3.41051,-0.85459 2.99923,-0.85459 -0.56814,0 -2.64632,-0.26622 -3.49342,-0.44753 -0.55581,-0.11896 -1.13221,-0.23844 -1.28089,-0.26551 -0.24683,-0.0449 -0.31261,0.0325 -0.75662,0.8904 -0.49929,0.96475 -0.68301,1.41829 -0.57451,1.41829 0.034,0 1.43174,-0.33347 3.10621,-0.74106 z m -44.56557,-0.18033 c 0.15915,-0.41474 -0.34385,-4.2216 -0.8319,-6.29624 -0.592618,-2.51902 -2.321279,-8.11256 -3.65405,-11.82362 -0.564671,-1.5723 -0.802686,-2.36811 -1.908955,-6.38253 -0.431897,-1.56726 -0.52061,-1.78662 -0.828533,-2.04871 -0.385982,-0.32852 -2.430366,-1.15935 -4.126893,-1.67718 -0.61432,-0.1875 -1.342731,-0.45508 -1.618694,-0.5946 -0.275961,-0.13952 -0.6285,-0.25367 -0.783419,-0.25367 -0.267526,0 -0.249555,0.0344 0.357825,0.68363 1.000773,1.06984 1.565371,1.93809 2.421874,3.7245 0.436502,0.91041 0.817502,1.65528 0.846665,1.65528 0.02917,0 0.231654,-0.0957 0.449975,-0.21274 0.795498,-0.42637 1.585724,-0.13478 2.018373,0.74477 0.354564,0.72081 1.360947,6.02907 1.482286,7.81847 0.05148,0.75935 0.03011,0.90255 -0.198604,1.32969 -0.340831,0.63655 -1.105485,1.0928 -2.301919,1.37353 -2.110209,0.49514 -3.005065,0.48285 -3.793319,-0.0521 -0.471805,-0.32019 -0.493879,-0.31976 -1.007196,0.0199 -0.399339,0.26428 -0.416806,0.29891 -0.362059,0.71804 0.03948,0.30225 -0.0427,0.82406 -0.262021,1.66369 -0.47539,1.81997 -1.934216,6.71407 -2.094786,7.02765 -0.08416,0.16436 -0.116556,0.44525 -0.0815,0.70662 0.03964,0.29559 -0.01705,0.65992 -0.177973,1.14348 -0.129887,0.39031 -0.207422,0.73839 -0.172299,0.77352 0.08456,0.0846 4.369872,-0.1899 4.532267,-0.29027 0.08618,-0.0532 0.157846,-0.84391 0.226431,-2.49827 0.06573,-1.58567 0.150138,-2.53952 0.244742,-2.76593 0.32311,-0.77331 1.478193,-1.22149 3.145493,-1.22047 1.305522,8.2e-4 2.027201,0.47444 2.379336,1.56155 0.09061,0.27972 0.286889,1.35246 0.436182,2.38385 0.149295,1.03139 0.322128,2.02067 0.384075,2.19835 0.110849,0.31799 0.127235,0.32422 1.036128,0.39371 0.507924,0.0389 1.545796,0.13229 2.306381,0.20765 1.895117,0.18778 1.859467,0.188 1.936077,-0.0116 z m 5.72296,-0.14937 c 1.32979,-0.17371 1.59721,-0.24476 1.58144,-0.42015 -0.0663,-0.73729 -2.07714,-6.48726 -2.26868,-6.48726 -0.044,0 -0.11252,0.44278 -0.15222,0.98397 -0.15917,2.17024 -0.49583,4.56698 -0.69684,4.96102 -0.11062,0.21683 -0.2356,0.57795 -0.27772,0.80247 l -0.0767,0.40821 0.5198,-0.0686 c 0.28587,-0.0378 0.90274,-0.11857 1.37079,-0.17971 z m -13.565892,-0.39149 c -0.008,-0.49521 -0.505839,-3.55543 -0.591077,-3.63314 -0.05355,-0.0488 -0.271797,-0.0665 -0.48499,-0.0392 l -0.38762,0.0495 -0.06172,0.65453 c -0.05534,0.58687 -0.110533,2.68469 -0.07948,3.02139 0.0086,0.0935 0.24928,0.13296 0.810076,0.13296 0.690053,0 0.797414,-0.0252 0.794823,-0.18616 z m 47.892252,-1.61222 c 0.71307,-1.28328 0.82398,-1.42131 1.33777,-1.66512 0.51979,-0.24665 1.24405,-0.2198 2.63109,0.0975 1.50278,0.34383 2.92913,0.49392 3.66997,0.38614 1.02135,-0.14859 1.12637,-0.26492 0.77539,-0.85908 -0.20306,-0.34373 -0.29916,-0.38171 -2.10508,-0.83152 -2.25132,-0.56077 -8.19393,-1.71217 -8.83685,-1.71217 -0.17673,0 -0.27066,0.073 -0.30817,0.23936 -0.11854,0.526 -0.6023,4.76544 -0.56986,4.99422 0.0317,0.22392 0.11627,0.25512 0.99207,0.36614 0.52657,0.0668 1.14666,0.11462 1.37799,0.10638 0.41977,-0.015 0.42179,-0.0172 1.03568,-1.12193 z m 10.9263,0.73919 c 0.43319,-0.1125 0.85095,-0.26787 0.92835,-0.34527 0.0774,-0.0774 0.19146,-0.50564 0.25349,-0.95166 0.13254,-0.95285 0.019,-1.85551 -0.38438,-3.05731 -0.3356,-0.99975 -0.61551,-1.47245 -1.66451,-2.81096 -0.9653,-1.23169 -1.46926,-2.1608 -1.77969,-3.28109 -0.2645,-0.95447 -0.26797,-1.39912 -0.0153,-1.95545 0.26122,-0.57504 0.7523,-0.96781 1.47154,-1.17689 0.50787,-0.14765 0.70776,-0.15414 1.38442,-0.0449 0.43495,0.0701 0.81177,0.10665 0.83734,0.0811 0.0256,-0.0256 0.0985,-0.47247 0.16214,-0.9931 0.0637,-0.52062 0.18242,-1.07585 0.26403,-1.23384 0.21401,-0.41435 0.20006,-0.44249 -0.35692,-0.71926 -1.02973,-0.51172 -3.08765,-0.3777 -4.2956,0.27975 -1.73459,0.94409 -3.58997,4.18029 -3.64123,6.35117 -0.0147,0.62416 -0.0142,0.62518 0.53445,1.11694 0.30207,0.27071 0.9483,0.72681 1.43608,1.01356 0.48777,0.28675 1.26321,0.74151 1.72318,1.01056 2.06383,1.20724 3.62573,3.32755 3.4448,4.67643 -0.0847,0.63181 -0.39525,1.1896 -0.97043,1.74323 -0.60693,0.5842 -0.54439,0.612 0.66822,0.2971 z m -37.13283,0.0313 1.20543,-0.0695 -0.0645,-0.34353 c -0.13566,-0.72307 -1.3177,-3.27033 -1.8281,-3.93952 -0.13881,-0.18198 -0.25239,-0.36212 -0.25239,-0.40031 0,-0.15039 -0.78382,-1.66568 -0.86161,-1.66568 -0.10865,0 -1.19938,-1.76625 -1.52947,-2.47676 -1.74314,-3.75202 -1.90513,-4.35342 -1.34475,-4.99243 0.16853,-0.19218 0.32415,-0.44206 0.34584,-0.55531 0.0223,-0.11611 0.30738,-0.36243 0.65399,-0.56496 1.24625,-0.72822 3.13905,-3.46063 3.46725,-5.00527 0.28038,-1.31958 0.0691,-2.19396 -0.81985,-3.39268 -1.01004,-1.36204 -2.2268,-2.30478 -4.40406,-3.41222 l -1.19843,-0.60956 -3.98908,0.0346 c -4.360218,0.0378 -5.440154,0.10668 -6.497893,0.41462 -0.69434,0.20213 -1.586655,0.78975 -1.586655,1.04484 0,0.0707 0.06904,0.18604 0.153404,0.25606 0.217934,0.18086 0.881238,2.2769 0.961018,3.03681 0.06947,0.6617 0.546091,2.46779 0.703575,2.6661 0.202405,0.25487 3.060171,8.80413 3.802501,11.37548 0.21671,0.75065 0.89366,4.03842 1.02345,4.9706 0.11428,0.82073 0.23845,0.67514 0.31724,-0.37195 0.0406,-0.54003 0.19248,-1.5563 0.33744,-2.25837 0.14496,-0.7021 0.33041,-1.61159 0.41212,-2.02114 0.0818,-0.40955 0.25907,-1.07815 0.39414,-1.4858 0.21885,-0.66043 0.30932,-0.78985 0.83067,-1.1884 0.59439,-0.4544 1.35347,-0.7515 1.63957,-0.64173 0.0867,0.0333 0.21259,0.26642 0.27971,0.51809 0.0672,0.25166 0.32717,0.86446 0.57786,1.36177 0.72805,1.44428 0.86568,1.79028 1.22706,3.08488 0.18782,0.67283 0.40155,1.343 0.47491,1.48928 0.0734,0.14624 0.24124,0.74462 0.373,1.32969 0.26501,1.17673 0.66705,2.63228 0.91637,3.31777 0.12665,0.34819 0.22468,0.4552 0.4483,0.48936 0.49091,0.0749 2.57173,0.0778 3.83187,0.005 z m -9.799,-16.73082 c -2.30095,-0.49815 -3.42201,-1.46568 -3.41482,-2.94717 0.003,-0.56834 0.0718,-0.79035 0.52744,-1.69557 0.28835,-0.57289 0.64962,-1.13292 0.80282,-1.24452 0.42194,-0.30739 1.56056,-0.49141 2.1304,-0.34434 0.45066,0.11632 1.3512,0.62854 2.25294,1.28147 0.53175,0.38502 1.29646,1.48447 1.46367,2.10433 0.2657,0.98507 -0.16326,2.16129 -0.98705,2.70645 -0.56472,0.37371 -1.48053,0.4197 -2.7754,0.13935 z m 1.14252,-2.44506 c 0.0336,-0.0542 -0.0481,-0.22547 -0.18136,-0.38044 -0.23046,-0.26792 -0.27534,-0.27802 -0.91385,-0.20578 -0.55853,0.0632 -0.6477,0.0998 -0.53009,0.21736 0.0778,0.0778 0.42848,0.21079 0.77936,0.29561 0.80022,0.19342 0.77314,0.19107 0.84594,0.0733 z m 21.99217,18.07616 c 0.59829,-2.07931 1.36704,-5.24943 1.29069,-5.32236 -0.0969,-0.0926 -4.29014,-0.42192 -5.37276,-0.42192 h -0.67901 l -0.40466,0.82441 c -0.22256,0.45341 -0.62328,1.20004 -0.89048,1.65915 -0.50232,0.86305 -0.50185,1.02089 0.003,1.0252 0.10484,9e-4 0.5596,0.0768 1.01056,0.16849 1.57968,0.32146 2.53548,0.94729 3.07563,2.01384 0.40752,0.8047 0.41629,0.81073 1.12931,0.77586 l 0.63871,-0.0312 z m 45.96218,-0.93078 c 0.0295,-0.10241 0.088,-0.26993 0.13015,-0.37232 0.0617,-0.14962 0.0215,-0.18615 -0.20401,-0.18615 -0.33037,0 -0.44415,0.21393 -0.27844,0.52356 0.14449,0.26997 0.28081,0.28349 0.3523,0.0349 z M 52.664442,128.52266 c 2.542043,-0.72638 3.590741,-0.88506 4.501782,-0.68118 0.501189,0.11217 0.612778,0.1109 0.652213,-0.007 0.133936,-0.40181 0.880798,-1.01973 1.769304,-1.46386 1.36678,-0.6832 2.289293,-1.32061 2.960356,-2.04543 0.680294,-0.7348 0.768198,-0.99533 0.603494,-1.78872 -0.107076,-0.51576 -0.209454,-0.67473 -0.841901,-1.30717 -1.002603,-1.0026 -1.631565,-1.3856 -3.407691,-2.07499 -0.848346,-0.32928 -1.773629,-0.724 -2.056185,-0.87716 -0.699188,-0.37899 -1.599507,-1.37268 -1.813972,-2.00211 -0.184556,-0.54164 -0.220201,-1.71316 -0.07498,-2.46406 0.04833,-0.24993 0.05545,-0.47444 0.01581,-0.49893 -0.154178,-0.0953 -2.435187,0.56833 -3.0653,0.89181 -0.480528,0.24668 -0.731609,0.31914 -0.904194,0.26091 -0.339145,-0.11444 -0.576839,-0.0603 -1.268909,0.28906 -0.762306,0.38483 -1.100981,0.91568 -1.25234,1.963 -0.127471,0.88199 -0.145611,2.67387 -0.02781,2.74669 0.04584,0.0284 0.440749,-0.0178 0.877599,-0.10252 0.436849,-0.0846 1.177223,-0.16392 1.645275,-0.17602 0.699037,-0.0181 0.929575,0.0195 1.290977,0.21117 1.232903,0.65338 2.076592,2.84147 1.588458,4.11964 -0.21196,0.555 -1.046227,1.36475 -1.922761,1.86626 -0.322088,0.18428 -0.636849,0.43079 -0.699471,0.5478 -0.06262,0.11701 -0.141371,0.83137 -0.174998,1.58747 -0.05629,1.26559 -0.04625,1.37472 0.126499,1.37472 0.103197,0 0.768628,-0.16601 1.478727,-0.36892 z m 31.597753,-4.96443 c 0.490724,-1.72367 0.490656,-1.73137 -0.01424,-1.63665 -0.786978,0.14764 -0.789514,0.15245 -0.719169,1.36481 0.0794,1.36841 0.149923,1.8284 0.262137,1.70975 0.0487,-0.0515 0.26078,-0.69856 0.471272,-1.43791 z m 59.421195,0.50396 c 0,-0.0234 -0.16662,-0.29011 -0.37028,-0.59273 -0.20365,-0.30263 -0.42853,-0.75022 -0.49972,-0.99466 -0.15087,-0.51795 -0.15059,-1.7338 5.3e-4,-2.39254 0.13196,-0.57522 0.12356,-0.57938 -1.71497,-0.85069 -1.55609,-0.22964 -1.44778,-0.27671 -1.66675,0.72447 -0.45237,2.06842 -0.63306,3.13645 -0.54545,3.22409 0.0537,0.0537 1.02336,0.26091 2.15466,0.46035 1.13131,0.19944 2.10479,0.38169 2.1633,0.40502 0.14454,0.0576 0.47868,0.0693 0.47868,0.0166 z m 9.51257,-2.00524 c -0.15811,-0.50069 -0.80427,-1.83149 -0.92719,-1.90961 -0.54001,-0.3432 -0.22741,0.73894 0.48805,1.68955 0.3756,0.49905 0.55574,0.58933 0.43914,0.22006 z m -23.03288,-0.10637 c 0.1294,-0.34221 0.43429,-2.56039 0.46408,-3.37647 l 0.0252,-0.69049 -1.05785,-0.12337 c -0.58183,-0.0679 -1.40248,-0.15566 -1.82368,-0.19512 l -0.76582,-0.0719 -0.52827,0.93882 c -1.0319,1.83381 -1.74505,3.2445 -1.67561,3.31447 0.0388,0.039 1.15572,0.14727 2.48215,0.24054 1.32643,0.0932 2.49665,0.17704 2.6005,0.18617 0.10774,0.009 0.22765,-0.0862 0.27929,-0.22278 z m -15.59421,-1.80839 c 0.34924,-0.5374 0.62426,-1.03444 1.72168,-3.11149 0.27821,-0.52656 0.59417,-1.10411 0.70211,-1.28345 0.10795,-0.17936 0.36538,-0.76395 0.57205,-1.29911 0.3028,-0.78404 0.37577,-1.1189 0.37577,-1.72428 0,-0.7164 -0.0132,-0.75628 -0.28427,-0.85934 -0.38186,-0.14519 -0.52426,-0.0725 -0.60008,0.3067 -0.0991,0.49523 -0.68992,1.68844 -1.31066,2.64678 -0.52658,0.81295 -2.16439,2.80734 -2.68235,3.26636 -0.2938,0.26035 -0.29034,0.30912 0.0932,1.31365 0.32913,0.86192 0.63358,1.30266 0.89984,1.30266 0.0824,0 0.31305,-0.25131 0.51264,-0.55848 z m -44.387342,-2.16581 c -0.05959,-0.52013 -0.108734,-1.60387 -0.109213,-2.40834 -5.67e-4,-0.94977 -0.04002,-1.46267 -0.112531,-1.46267 -0.06141,0 -0.240921,0.0654 -0.398908,0.14535 -0.489602,0.24773 -1.069764,0.29809 -1.896982,0.16464 -0.515186,-0.0831 -0.831658,-0.0918 -0.898683,-0.0249 -0.164319,0.16431 0.09251,1.13833 0.435589,1.65194 0.268173,0.40149 2.983295,2.98214 3.059636,2.90811 0.01618,-0.0157 -0.01931,-0.45409 -0.07891,-0.97422 z m 21.729397,0.16632 c 0.222635,-0.0632 0.434136,-0.19115 0.470003,-0.28462 0.03587,-0.0935 -0.01812,-0.70081 -0.119946,-1.34967 -0.30225,-1.92571 -0.317531,-1.94712 -0.652295,-0.91377 -0.252731,0.7801 -0.703718,1.77598 -1.0595,2.33957 l -0.289712,0.45894 0.623331,-0.068 c 0.342832,-0.0374 0.805485,-0.11948 1.028119,-0.18255 z m 52.342305,-1.81354 c 0.22566,-0.4143 0.64452,-1.06275 0.93079,-1.44099 0.28628,-0.37822 0.52051,-0.7298 0.52051,-0.78126 0,-0.11109 -0.073,-0.13307 -1.38288,-0.41681 -2.0725,-0.44893 -3.03421,-0.61502 -3.12035,-0.5389 -0.0487,0.0431 -0.27085,0.8024 -0.49355,1.68737 -0.29045,1.15421 -0.37063,1.6313 -0.28367,1.68782 0.13801,0.0897 2.61507,0.52386 3.09975,0.54329 0.29008,0.0116 0.35647,-0.0558 0.7294,-0.74052 z m -13.17028,-1.06185 c 0.13747,-0.22243 0.57792,-3.01495 0.48949,-3.10338 -0.0493,-0.0492 -0.4438,-0.0754 -0.87662,-0.058 l -0.78694,0.0315 -0.71422,1.3297 c -0.39284,0.73132 -0.70373,1.40149 -0.69091,1.48924 0.0173,0.1191 0.2794,0.18952 1.03279,0.27765 1.38483,0.16199 1.46578,0.16374 1.54641,0.0334 z m 18.50415,-3.27298 c 1.0582,-0.23583 1.16939,-0.44321 0.3785,-0.7059 l -0.53741,-0.1785 -0.74489,0.34334 c -0.40968,0.18884 -0.74488,0.38275 -0.74488,0.43092 0,0.0698 0.4918,0.26368 0.74463,0.29352 0.0293,0.003 0.43608,-0.079 0.90405,-0.18338 z m -6.46531,-1.57328 c -0.0848,-0.16762 -0.23649,-0.55653 -0.33706,-0.86424 -0.18671,-0.57127 -0.30466,-0.68501 -0.84436,-0.81432 -0.30136,-0.0723 -0.30552,-0.0673 -0.22818,0.2778 0.0433,0.19326 0.13392,0.63833 0.2013,0.98902 l 0.12253,0.63766 0.53115,0.11803 c 0.63499,0.14109 0.76063,0.0633 0.55462,-0.34395 z m 4.23157,-0.69122 c 1.04066,-0.37417 2.58438,-1.24752 5.93622,-3.35844 l 0.40472,-0.25488 -0.55212,-0.60631 c -0.93037,-1.0217 -1.48839,-1.34548 -2.89102,-1.67736 -0.26031,-0.0617 -0.39262,0.0263 -1.17014,0.7773 -1.53335,1.48098 -2.61609,2.20031 -3.73669,2.48248 -0.27745,0.0698 -0.4908,0.18549 -0.4908,0.26596 0,0.0783 0.27524,0.74187 0.61166,1.47459 0.53467,1.16453 0.63844,1.32405 0.8244,1.26741 0.11701,-0.0356 0.5957,-0.20246 1.06377,-0.37075 z m -128.078604,0.009 c 0.741026,-0.10708 1.084765,-0.26141 0.791325,-0.35526 -1.345759,-0.4304 -2.347363,-0.92314 -4.488716,-2.20822 -1.338445,-0.80323 -2.792169,-1.73865 -3.230499,-2.07871 -0.438331,-0.34005 -1.092786,-0.84268 -1.454346,-1.11694 -0.890232,-0.67528 -1.3896616,-1.25609 -1.5538365,-1.80703 -0.075408,-0.25282 -0.3667027,-0.89068 -0.647325,-1.41723 -0.6820849,-1.279871 -1.062424,-2.379382 -1.062424,-3.071342 0,-0.472566 0.045157,-0.60094 0.2925332,-0.831667 0.4404332,-0.41079 0.7536665,-0.538562 1.1417844,-0.46575 0.4591167,0.08613 0.8250249,0.439555 1.1783809,1.138177 1.103124,2.180996 3.475728,4.300262 4.655611,4.158482 0.509144,-0.0612 0.590015,-0.25397 0.268547,-0.64025 -0.137568,-0.16531 -0.417666,-0.60002 -0.622439,-0.96604 -0.204773,-0.366022 -0.622261,-1.049533 -0.92775,-1.518918 -0.305491,-0.469385 -0.586064,-1.016689 -0.6235,-1.216232 -0.178046,-0.949072 0.327682,-1.639313 1.201094,-1.639313 0.50836,0 0.55731,0.03704 1.634806,1.237171 0.734804,0.818433 5.60204,2.347213 7.160486,2.249083 l 0.543607,-0.03424 -0.851006,-0.408418 c -0.468053,-0.224627 -0.994612,-0.514884 -1.170132,-0.645015 -0.175519,-0.130129 -0.54302,-0.321333 -0.816667,-0.424895 -0.664429,-0.251457 -0.951124,-0.577048 -1.016156,-1.154015 -0.04594,-0.407529 -0.01224,-0.515669 0.253197,-0.812751 0.172487,-0.193048 0.46048,-0.374232 0.659557,-0.414948 0.535009,-0.109421 1.921759,0.07013 3.579461,0.463478 1.928278,0.457541 2.646636,0.570864 4.055643,0.639783 l 1.156764,0.05658 -0.74463,-0.276819 C 28.22858,96.02533 27.366938,95.706907 26.723364,95.469975 24.752449,94.74438 22.623633,93.570214 21.524205,92.602339 c -0.353544,-0.311241 -0.419643,-0.439827 -0.464139,-0.902911 -0.06158,-0.640745 0.06912,-0.931144 0.525158,-1.166973 0.420827,-0.217617 0.9983,-0.148234 1.792508,0.215366 0.322556,0.14767 0.920065,0.316704 1.327795,0.375627 0.901043,0.130217 2.463461,0.144537 2.53841,0.02326 0.02994,-0.04845 -0.302392,-0.336153 -0.73852,-0.639351 -0.436127,-0.303196 -1.235671,-0.924847 -1.776764,-1.381446 -0.541094,-0.456598 -1.538723,-1.240074 -2.21695,-1.741056 -1.027378,-0.758885 -1.263429,-0.986562 -1.414629,-1.364451 -0.221578,-0.553777 -0.152146,-0.941057 0.232895,-1.299062 0.638189,-0.593377 1.168797,-0.473841 2.734004,0.61592 2.087029,1.453075 3.742018,2.482052 4.999655,3.108501 1.433449,0.714025 3.908753,1.5795 5.712798,1.997449 0.660891,0.153111 1.560638,0.376558 1.999438,0.496547 0.438799,0.119993 1.037163,0.283825 1.329696,0.364076 0.613958,0.168425 2.672956,0.514808 3.989085,0.671079 0.871061,0.103428 1.45244,0.190305 2.818956,0.421253 0.945465,0.159787 4.200672,0.514422 6.382539,0.695338 4.124582,0.342001 5.663582,0.412904 9.148306,0.421471 l 3.616772,0.0089 2.44664,-0.50021 c 5.690383,-1.163385 6.896825,-1.454617 7.871798,-1.900228 0.234027,-0.10696 0.952062,-0.371136 1.595636,-0.587054 1.881471,-0.631237 2.671703,-0.966422 4.308213,-1.827372 0.848345,-0.446305 2.284417,-1.182161 3.19127,-1.635235 2.235239,-1.116748 3.736953,-1.935658 4.622889,-2.520937 1.570893,-1.037788 3.555198,-2.76929 6.546554,-5.712523 2.156196,-2.121508 2.536893,-2.389578 3.170325,-2.232398 0.364963,0.09057 0.733118,0.433558 0.945302,0.8807 0.16434,0.346324 0.160104,0.361247 -0.42822,1.508647 -0.326811,0.637372 -1.235505,2.180039 -2.019318,3.428145 -1.406883,2.24025 -1.933069,3.156709 -1.856431,3.233347 0.09634,0.09634 2.819706,-1.656968 4.835285,-3.112951 0.654354,-0.472681 1.962839,-1.33141 2.907749,-1.908281 1.52461,-0.930786 1.88765,-1.212067 3.22486,-2.49863 0.82876,-0.797373 2.00297,-2.000878 2.60937,-2.674456 0.60638,-0.67358 1.21896,-1.277745 1.36128,-1.342593 0.61067,-0.278241 1.54066,-0.06332 1.89113,0.437037 0.20525,0.29302 0.21494,1.036836 0.0195,1.504313 -0.0805,0.192726 -0.47242,0.633976 -0.8709,0.980558 -0.39846,0.346583 -1.39766,1.257713 -2.22044,2.024736 -0.82278,0.767025 -1.98636,1.83211 -2.58575,2.36686 -0.59938,0.534749 -1.04044,0.97227 -0.98011,0.97227 0.0602,0 0.81878,-0.405339 1.68547,-0.900755 0.86669,-0.495416 1.70593,-0.95023 1.86498,-1.010699 0.15905,-0.06048 0.446,-0.229558 0.63768,-0.375754 0.19166,-0.146194 0.39273,-0.265807 0.44681,-0.265807 0.054,0 0.78473,-0.65564 1.62368,-1.456976 0.83895,-0.801336 1.91828,-1.753353 2.39853,-2.115594 0.95221,-0.718245 1.52586,-1.320221 2.27228,-2.384468 0.68193,-0.972312 0.97119,-1.264016 1.35985,-1.371332 0.70327,-0.194179 1.36011,0.205852 1.49196,0.90863 0.0848,0.452643 -0.34588,1.371666 -1.0976,2.341516 -1.7417,2.247119 -3.61302,4.453517 -5.47123,6.450941 -1.29888,1.396174 -1.50499,1.669557 -1.25879,1.669557 0.21707,0 3.81979,-1.825087 5.26459,-2.666968 1.95698,-1.140332 3.49349,-2.151567 5.66596,-3.728994 4.02837,-2.924958 8.22942,-6.760089 9.81779,-8.962624 0.34258,-0.475035 0.80446,-1.0973 1.02642,-1.382808 1.52585,-1.962771 2.54538,-3.726236 3.17463,-5.491117 0.45333,-1.271411 1.28975,-2.816104 1.75008,-3.23198 0.53688,-0.485039 1.08082,-0.595388 1.58178,-0.320894 0.56352,0.308772 0.79106,0.692558 0.84393,1.423446 0.0601,0.831885 -0.0676,1.320682 -0.84775,3.246371 -0.80688,1.991403 -1.32712,3.042549 -2.3428,4.733717 -0.43922,0.731333 -1.07736,1.808386 -1.41809,2.393452 -1.21796,2.09136 -2.04188,3.238787 -3.40784,4.745912 -0.29773,0.328493 -0.80844,0.974723 -1.13491,1.43607 -0.94037,1.328867 -2.19907,2.593551 -4.27342,4.293688 -1.05916,0.868089 -2.04179,1.702433 -2.18361,1.854096 -0.24396,0.260835 -0.24638,0.27575 -0.0449,0.27575 0.47669,0 5.52215,-2.017442 6.89815,-2.758245 0.40956,-0.22049 1.00791,-0.548515 1.3297,-0.728944 1.54276,-0.865044 2.77445,-0.948606 3.45848,-0.234637 0.26249,0.273985 0.31026,0.410094 0.31026,0.88405 0,0.414389 -0.0639,0.649829 -0.24518,0.90452 -0.25023,0.351409 -1.21091,0.973074 -1.50653,0.974877 -0.18068,0.0011 -0.4445,0.13202 -1.85747,0.921743 -0.52656,0.294301 -1.92265,1.025 -3.10245,1.623777 -1.17977,0.598775 -2.23289,1.187474 -2.34025,1.308219 l -0.1952,0.219535 0.69144,-0.07592 c 1.35854,-0.14918 2.43592,-0.454835 3.77634,-1.071353 1.9784,-0.909962 2.43137,-1.146057 3.19126,-1.663328 1.76834,-1.20374 3.17271,-1.22272 3.56036,-0.04812 0.22831,0.691754 -0.28716,1.505955 -1.66742,2.633816 -0.4268,0.348744 -0.77599,0.677676 -0.77599,0.73096 0,0.158753 0.87068,-0.05238 3.19126,-0.773858 0.20478,-0.06367 0.7074,-0.116632 1.11695,-0.117707 1.28126,-0.0034 1.98568,0.515088 1.98568,1.461443 0,0.379587 -0.0694,0.590552 -0.28895,0.878398 -0.27753,0.363865 -1.18856,0.884607 -1.55139,0.886777 -0.0956,5.71e-4 -0.4884,0.216449 -0.8729,0.47973 -0.38451,0.26328 -0.72496,0.47869 -0.75654,0.47869 -0.0316,0 -0.40951,0.162619 -0.8398,0.361374 -0.73723,0.340535 -2.26751,0.886745 -3.57995,1.277825 -0.73803,0.219915 -0.96558,0.348951 -0.74164,0.420583 0.1776,0.05682 1.32341,0.194338 1.64583,0.197533 0.48438,0.0048 4.96319,-1.949322 6.48394,-2.828967 1.45332,-0.840642 2.39791,-1.00846 3.09722,-0.550259 0.37372,0.244872 0.60358,0.822686 0.51504,1.294681 -0.13578,0.723684 -0.63961,1.1057 -3.55409,2.694769 -1.37282,0.748505 -4.14866,2.556969 -4.14866,2.702866 0,0.05283 0.27148,0.06394 0.61166,0.02504 1.8818,-0.215176 2.96957,-0.664608 5.19421,-2.1461 1.72383,-1.147975 4.19145,-3.592975 6.54146,-6.481511 1.53088,-1.881683 2.31375,-2.93676 2.8807,-3.882255 1.50579,-2.511192 1.61774,-2.714065 1.79044,-3.244457 0.45073,-1.384291 2.57002,-5.83898 3.08789,-6.490617 0.52596,-0.661846 0.97063,-0.925691 1.57548,-0.934816 0.3329,-0.005 0.63055,0.06018 0.80931,0.177318 0.45591,0.298724 0.52622,0.625499 0.38074,1.769769 -0.26166,2.05797 -0.41002,2.936071 -0.56621,3.350831 -0.45124,1.198367 -0.59285,1.653877 -0.70693,2.274021 -0.0687,0.373114 -0.34084,1.162951 -0.6049,1.755199 -0.26406,0.592247 -0.59107,1.364026 -0.72672,1.715066 -0.35629,0.922117 -1.25334,2.641267 -1.58203,3.031887 -0.15517,0.184399 -0.28211,0.416888 -0.28211,0.516645 0,0.09977 -0.31796,0.706413 -0.7066,1.348128 -0.38862,0.641713 -0.86522,1.442893 -1.0591,1.780397 -0.65675,1.143263 -2.63236,3.589928 -4.38225,5.427113 -0.37822,0.397087 -0.6597,0.749953 -0.6255,0.784149 0.15838,0.158372 2.57497,-1.595971 3.47582,-2.523288 0.26327,-0.271019 0.82201,-0.786327 1.24163,-1.145131 0.41962,-0.358805 1.57327,-1.574816 2.56366,-2.702248 2.55854,-2.912541 3.93528,-4.290719 4.41996,-4.424545 0.84319,-0.232816 1.55999,0.297402 1.5609,1.154595 4.5e-4,0.421835 -0.66871,1.600221 -2.74664,4.836848 -1.38683,2.160148 -1.88443,2.875847 -3.22675,4.640901 -0.51735,0.680284 -0.94064,1.26668 -0.94064,1.303102 0,0.136571 0.22615,0.05616 0.76964,-0.273678 2.32083,-1.408485 4.67444,-3.776261 6.07279,-6.109347 0.21485,-0.358474 0.57026,-0.840257 0.7898,-1.070627 0.21953,-0.230372 0.55385,-0.643324 0.74295,-0.917672 0.43382,-0.629403 0.90692,-0.9226 1.48949,-0.923115 0.87315,-7.7e-4 1.39229,0.821046 1.20038,1.900262 -0.37405,2.103586 -1.90239,5.337767 -3.88307,8.217189 -0.46452,0.67527 -0.46845,0.769519 -0.0282,0.675678 4.04473,-0.862188 9.39671,-5.222904 12.22125,-9.957699 0.45501,-0.762741 1.04314,-2.524593 1.37315,-4.113498 0.31169,-1.500707 0.52052,-2.136556 0.74036,-2.254215 0.10897,-0.05831 0.415,-0.106025 0.6801,-0.106025 0.38559,0 0.55587,0.06488 0.8515,0.324445 0.55599,0.488167 0.62565,0.830221 0.54539,2.67804 -0.0385,0.884924 -0.11131,1.804009 -0.16191,2.042408 -0.31562,1.486677 -1.17595,4.056499 -1.83706,5.487308 -0.66914,1.448153 -2.73252,3.921384 -5.73116,6.869507 -2.98691,2.936603 -6.0814,5.214143 -9.17733,6.754503 -0.93084,0.46315 -1.75376,0.84207 -1.8287,0.84207 -0.20833,0 -0.30103,0.22478 -0.13588,0.32939 0.2393,0.15156 1.53701,0.109 2.35951,-0.0774 0.93809,-0.21259 2.24758,-0.81459 3.123,-1.4358 1.06977,-0.75908 2.99981,-2.41675 4.02616,-3.45798 0.73299,-0.74363 1.06666,-1.00471 1.41885,-1.11024 0.37506,-0.11237 0.53555,-0.24849 0.86511,-0.73381 0.75247,-1.108043 1.49048,-1.596526 2.41457,-1.598146 0.44347,-7.79e-4 0.64408,0.216415 0.73019,0.790517 0.0826,0.550599 -0.0774,1.119419 -0.39445,1.403309 -0.12227,0.10947 -0.50466,0.60592 -0.84977,1.10323 -0.34509,0.4973 -0.81132,1.13596 -1.03607,1.41922 -0.22475,0.28328 -0.51152,0.6981 -0.63727,0.92184 l -0.22863,0.40681 0.45387,0.24993 c 0.35837,0.19732 0.47478,0.3342 0.55322,0.65053 0.17127,0.6905 -0.17221,1.2079 -1.39964,2.10844 -1.24041,0.91007 -1.13982,0.82733 -1.07934,0.88779 0.10827,0.10826 1.20494,-0.26884 2.2932,-0.78856 2.65143,-1.26624 4.79616,-3.04519 6.18569,-5.1308 1.89947,-2.85097 2.54048,-4.59731 3.1517,-8.58632 0.32462,-2.118731 0.73355,-5.926996 0.65765,-6.124781 -0.032,-0.08335 -0.29307,-0.252607 -0.58022,-0.376129 -1.08013,-0.464668 -1.55639,-1.230646 -2.51406,-4.043534 -0.32818,-0.963946 -0.76789,-2.159514 -0.97712,-2.656821 -0.20921,-0.497306 -0.46307,-1.191406 -0.56412,-1.542446 -0.27493,-0.95516 -0.86001,-2.143156 -1.63234,-3.31447 -0.37971,-0.575872 -0.76754,-1.231693 -0.86184,-1.45738 -0.0943,-0.225687 -0.33326,-0.632548 -0.53104,-0.904138 -0.43193,-0.593152 -0.8118,-1.324465 -0.8118,-1.562861 0,-0.208047 0.41005,-0.571271 0.6505,-0.576223 0.0945,-0.0019 0.28597,0.08619 0.42551,0.195864 0.13953,0.109672 0.69525,0.464286 1.23493,0.788033 0.95543,0.573126 1.50201,0.987154 2.38281,1.804925 0.23631,0.2194 0.51082,0.398908 0.61004,0.398908 0.31933,0 0.61349,0.293219 1.08964,1.086139 0.69683,1.160492 0.64589,0.692834 -0.21956,-2.015851 -1.31481,-4.115068 -2.74682,-7.358096 -4.25491,-9.635958 -1.36078,-2.055362 -3.27564,-4.32692 -3.64744,-4.32692 -0.31292,0 -0.55415,0.526147 -0.63172,1.377859 -0.0402,0.441562 -0.12274,2.047436 -0.1834,3.568608 -0.0607,1.521172 -0.13632,2.907642 -0.16812,3.081046 -0.0317,0.173403 -0.18357,0.446525 -0.33724,0.606937 l -0.27945,0.291658 -0.3138,-0.394186 c -0.17259,-0.216802 -0.3554,-0.471563 -0.40626,-0.566134 -0.11131,-0.207024 -0.3478,-1.408953 -0.52081,-2.647007 -0.28043,-2.006696 -0.46975,-2.732128 -0.97858,-3.749739 -0.16823,-0.336413 -0.37628,-0.915293 -0.46234,-1.286402 -0.086,-0.37111 -0.22898,-0.848263 -0.31759,-1.060343 -0.0885,-0.212078 -0.16111,-0.492266 -0.16111,-0.62264 0,-0.130375 -0.12765,-0.421234 -0.28367,-0.646354 -0.25306,-0.36517 -0.29893,-0.578001 -0.42551,-1.973667 -0.2508,-2.76555 -0.53745,-3.674657 -2.2295,-7.070978 -1.35554,-2.720893 -2.93553,-5.194724 -5.41715,-8.48178 -1.48686,-1.96944 -2.37734,-3.01292 -4.99278,-5.85066 -1.99209,-2.161386 -2.3475,-2.564296 -3.64183,-4.128531 -2.50853,-3.031619 -3.48871,-3.91043 -6.83772,-6.130536 -2.69916,-1.789321 -6.66186,-4.252464 -7.81861,-4.859931 -2.53246,-1.329918 -4.66557,-1.860383 -9.57381,-2.380836 -1.40415,-0.148893 -3.65401,-0.409945 -4.99965,-0.580116 -4.28501,-0.541881 -4.96136,-0.589193 -8.3505,-0.584132 -5.55512,0.0083 -9.14303,0.447675 -14.041578,1.719553 -3.738209,0.970605 -7.079954,2.483761 -10.2631,4.647177 -1.043578,0.709265 -2.395603,1.920979 -2.395603,2.146991 0,0.07827 0.514593,0.40701 1.143538,0.730536 0.628946,0.323525 1.430752,0.804202 1.781792,1.068171 1.308363,0.983844 3.307886,3.105915 4.311096,4.575318 0.199721,0.292534 0.454375,0.637149 0.565896,0.765812 0.111522,0.128663 0.174258,0.308223 0.139416,0.399023 -0.05469,0.142518 -0.147438,0.127442 -0.678307,-0.110262 -1.949741,-0.873025 -3.24221,-1.394546 -4.710416,-1.900685 -1.799074,-0.620202 -2.506221,-0.890485 -3.40218,-1.300368 -0.322799,-0.147675 -1.113467,-0.508848 -1.757039,-0.802607 -0.643573,-0.293761 -1.529149,-0.700486 -1.96795,-0.903837 -1.646383,-0.76297 -2.831306,-1.171172 -4.733716,-1.630741 -3.10193,-0.749343 -4.599433,-0.881472 -8.988742,-0.793097 -7.216346,0.145294 -10.610381,0.588887 -15.584033,2.036792 -5.954885,1.733559 -13.093425,5.146242 -17.553268,8.391599 -3.592397,2.614128 -7.110936,6.107747 -9.115873,9.051303 -1.677689,2.463112 -3.140852,5.686 -6.397923,14.092626 -2.637617,6.807794 -3.366597,9.435204 -3.366597,12.133973 0,1.421451 -0.09634,1.767077 -0.65298,2.342802 -0.196674,0.203416 -0.538643,0.566741 -0.759932,0.80739 -0.221291,0.24065 -0.676046,0.59342 -1.010569,0.783933 -1.708421,0.972953 -3.034847,3.031797 -4.7872985,7.43072 -2.2000407,5.522436 -2.8678541,8.928179 -3.0662123,15.63722 -0.1008596,3.411185 0.1299086,4.896785 1.0657845,6.861235 0.8059381,1.6917 1.8352634,2.8182 3.4396793,3.7644 2.401138,1.41607 6.317721,2.20481 9.013672,1.8152 z m 6.650102,-33.918412 c -0.910082,-0.288167 -1.382016,-0.838739 -1.650109,-1.925066 -0.230462,-0.933845 -0.342666,-6.611305 -0.168184,-8.510052 0.216265,-2.353436 1.14467,-8.285965 1.772924,-11.329007 1.182056,-5.725477 3.370894,-10.2298 6.797543,-13.988399 4.238999,-4.649642 9.972625,-8.109351 16.324173,-9.850116 3.367466,-0.922921 8.440683,-1.46253 15.060013,-1.601851 4.75417,-0.100055 7.414187,0.183289 11.329007,1.206795 1.485844,0.388464 2.104427,0.625915 2.753811,1.057082 0.675109,0.448246 2.564972,2.243059 2.564972,2.435964 0,0.165347 -0.349682,0.307033 -1.489259,0.603435 -1.409565,0.366625 -2.982393,0.332663 -4.627342,-0.09992 C 71.918892,33.116216 70.856838,32.932 68.243956,32.71812 65.414685,32.486529 57.693474,32.858566 53.64412,33.421598 c -3.58126,0.497944 -7.059441,1.65588 -10.326154,3.437724 -2.53277,1.381511 -4.567138,2.896769 -6.632816,4.940318 -2.551064,2.523735 -3.981202,4.639045 -5.26597,7.788872 -1.027613,2.519366 -1.568757,4.803115 -2.457601,10.371625 -0.922061,5.776621 -1.035191,7.443372 -0.804625,11.85458 l 0.136778,2.616873 -0.306493,0.493471 c -0.440053,0.708507 -1.373139,1.113593 -2.062381,0.895352 z M 165.2524,75.150643 c -0.44942,-0.119409 -0.49152,-0.222539 -0.70777,-1.733954 -0.24331,-1.700609 -0.71604,-4.460028 -0.86565,-5.052844 -0.0517,-0.204773 -0.14753,-0.707398 -0.21301,-1.116944 -0.26344,-1.647386 -0.34467,-2.049478 -0.54693,-2.707306 -0.11605,-0.377393 -0.28242,-0.824302 -0.36973,-0.993132 -0.22556,-0.43618 -1.14233,-3.230098 -1.47348,-4.490487 -0.63498,-2.416871 -1.58725,-4.933965 -2.73355,-7.225516 -0.66477,-1.328924 -3.03405,-5.404533 -3.68411,-6.337379 -0.81979,-1.176382 -2.64591,-3.345634 -3.51711,-4.177982 -1.49911,-1.43223 -2.61991,-1.883652 -4.68766,-1.888032 -0.67515,-0.0014 -1.44201,-0.05201 -1.70412,-0.112407 -1.55563,-0.358446 -2.09761,-2.11546 -0.9932,-3.219867 0.5534,-0.553391 1.1646,-0.7074 2.80738,-0.7074 2.3744,0 4.0073,0.501184 6.0023,1.84228 0.89448,0.6013 2.44317,2.195566 3.89378,4.008381 1.52821,1.909802 1.79566,2.308825 3.51634,5.245978 3.05587,5.216293 4.30495,8.380619 5.73941,14.539894 0.40655,1.74561 0.50637,2.513301 0.65005,4.999654 0.16223,2.807208 0.16099,4.860367 -0.004,6.010226 -0.0753,0.526559 -0.17834,1.402062 -0.22872,1.945559 -0.0821,0.885163 -0.22253,1.319806 -0.41624,1.287904 -0.0368,-0.006 -0.24567,-0.05854 -0.46432,-0.116626 z m -8.8073,-14.134985 c -1.31954,-1.198925 -1.82886,-1.91133 -2.6104,-3.651302 -1.01442,-2.258457 -2.10992,-3.730275 -4.72236,-6.344517 -1.65445,-1.655577 -2.19354,-2.044517 -3.07391,-2.21772 -1.1864,-0.23341 -1.82354,-0.902948 -1.82261,-1.915293 9.4e-4,-1.025544 0.55954,-1.690763 1.66062,-1.977555 1.10692,-0.288321 2.40829,0.127239 3.94189,1.258762 1.53221,1.130488 4.95428,4.809044 6.16305,6.62497 0.60481,0.908617 1.68611,3.090182 2.02339,4.082272 0.39528,1.162732 0.14192,4.855892 -0.34599,5.043116 -0.0967,0.0371 -0.55223,-0.301752 -1.21368,-0.902733 z M 124.26983,32.709181 c -0.29252,-0.05576 -1.07798,-0.366939 -1.74545,-0.691487 -1.38607,-0.673966 -3.72889,-1.472966 -5.59447,-1.907955 -1.71135,-0.399032 -3.33582,-0.39957 -5.72116,-0.0018 -1.94495,0.324251 -2.32768,0.339353 -2.95864,0.116738 -0.85129,-0.300352 -1.29672,-0.920298 -1.29672,-1.804789 0,-1.048573 0.62958,-1.723686 1.87233,-2.007785 2.4951,-0.57039 5.568,-0.831074 7.20721,-0.611412 2.09054,0.280142 5.95438,1.441339 7.82403,2.351355 1.33463,0.649607 2.10119,1.322784 2.56374,2.251435 0.18514,0.371689 0.36863,0.80789 0.40777,0.969335 0.0391,0.161446 0.1137,0.319845 0.16573,0.351999 0.052,0.03215 0.0946,0.173063 0.0946,0.31313 0,0.297997 -0.37979,0.504389 -1.25515,0.682093 -0.64494,0.130927 -0.82721,0.129673 -1.56381,-0.01076 z m 8.63646,-5.456944 c -0.34002,-0.07435 -0.93838,-0.301312 -1.32969,-0.504362 -0.39131,-0.203051 -1.35771,-0.701322 -2.14755,-1.107269 -1.98601,-1.02073 -4.53234,-1.851397 -7.18035,-2.342368 -2.42064,-0.448814 -14.39439,-0.09463 -18.70898,0.553414 -2.4209,0.363613 -5.425945,1.157729 -8.60277,2.273379 -1.069468,0.375579 -1.550796,0.402971 -2.166654,0.123299 -1.228622,-0.557939 -1.454874,-2.195649 -0.438433,-3.173546 0.189423,-0.182238 0.583751,-0.449864 0.876283,-0.594723 0.934283,-0.462643 5.0075,-1.69032 7.309264,-2.203031 3.52485,-0.785146 9.37131,-1.200776 17.05076,-1.212153 3.89064,-0.0057 4.22804,0.0089 5.42516,0.236658 3.66042,0.696248 7.1786,1.969371 9.89293,3.579952 1.31207,0.778532 1.80936,1.199426 2.71021,2.293844 0.4575,0.555813 0.93658,1.12075 1.06462,1.255416 0.25917,0.272577 0.21848,0.552969 -0.0803,0.552969 -0.10715,0 -0.24029,0.04015 -0.29586,0.08921 -0.1598,0.141061 -1.44741,0.337353 -2.13447,0.32539 -0.34428,-0.0059 -0.90419,-0.07173 -1.24421,-0.146082 z m -0.94586,81.162413 c 0.0351,-0.94763 -0.0396,-0.951 -0.38607,-0.0175 -0.30746,0.82835 -0.29955,0.94338 0.062,0.90179 0.28888,-0.0333 0.29294,-0.0443 0.32408,-0.8843 z m -73.481271,-0.11377 c 0.46431,-0.46997 1.193497,-1.052 1.752536,-1.39885 0.526559,-0.3267 1.292464,-0.81929 1.70201,-1.09466 0.888217,-0.59721 1.40955,-0.86667 2.136978,-1.10452 0.297738,-0.0973 0.796488,-0.33788 1.108332,-0.53449 l 0.566991,-0.3575 -1.533837,-0.0628 c -0.843608,-0.0345 -2.723458,-0.11483 -4.177445,-0.17845 -2.555112,-0.11179 -3.198825,-0.0931 -2.340321,0.0677 1.008871,0.18894 1.468699,0.57152 1.468699,1.22198 0,0.64043 -0.34556,0.91905 -1.35831,1.09516 -0.452833,0.0787 -0.85317,0.173 -0.889639,0.20947 -0.03646,0.0364 0.03435,0.41415 0.157376,0.83926 0.123026,0.42512 0.253476,1.0123 0.289888,1.30483 0.08079,0.64904 0.12476,0.79781 0.235804,0.79781 0.04718,0 0.443603,-0.36218 0.880938,-0.80484 z m 73.817591,-3.31005 c 0.004,-0.12493 -0.39546,-0.30757 -0.48261,-0.22041 -0.0251,0.0251 -0.014,0.27521 0.0245,0.55595 l 0.07,0.51046 0.19186,-0.3601 c 0.10552,-0.19805 0.19387,-0.41671 0.19633,-0.4859 z m -62.331683,-1.20389 c 0,-0.0584 -0.04787,-0.10637 -0.106376,-0.10637 -0.05852,0 -0.106375,0.0479 -0.106375,0.10637 0,0.0584 0.04787,0.10638 0.106375,0.10638 0.0585,0 0.106376,-0.0479 0.106376,-0.10638 z m -13.66927,-0.30841 c 0.849682,-0.0649 0.909515,-0.0823 0.531877,-0.15473 -1.055151,-0.20226 -1.535429,-0.32681 -2.169499,-0.56252 l -0.680242,-0.25291 -0.407317,0.44122 c -0.224026,0.24266 -0.381816,0.48247 -0.350644,0.5329 0.06511,0.10534 1.672085,0.10324 3.075825,-0.004 z m 29.131599,-2.11163 c 0.04818,-0.49091 0.03098,-0.66486 -0.06572,-0.66486 -0.225511,0 -1.780524,0.54547 -1.780524,0.62458 0,0.11004 1.63694,0.84386 1.714906,0.76878 0.03635,-0.035 0.09545,-0.36284 0.131338,-0.7285 z m 7.355248,-1.02977 c 0.936108,-0.19108 2.834877,-0.35075 5.903848,-0.496452 1.316398,-0.06248 2.800338,-0.150495 3.297638,-0.195537 0.49731,-0.04505 4.36618,-0.03493 8.59747,0.02246 5.62726,0.07634 7.72503,0.0726 7.81152,-0.0139 0.065,-0.06504 0.0975,-0.1374 0.0722,-0.16081 -0.10535,-0.09728 -2.20405,-0.835968 -4.13186,-1.454306 l -2.06462,-0.662225 -0.70114,0.124987 c -0.38563,0.06873 -1.58672,0.130939 -2.6691,0.138216 -1.93262,0.01299 -3.01044,-0.08887 -4.30821,-0.407142 -1.0771,-0.264158 -4.848149,-1.534447 -5.665691,-1.908507 l -0.772414,-0.353412 -1.461474,0.698264 c -0.803813,0.384045 -2.63427,1.263828 -4.067681,1.955074 -1.433412,0.691246 -2.941287,1.399931 -3.350833,1.574857 -0.782178,0.334084 -0.772859,0.379918 0.09849,0.48427 0.288195,0.03453 0.695081,0.164281 0.904194,0.28838 0.444569,0.263833 1.119463,0.492533 1.497148,0.507343 0.146265,0.005 0.601023,-0.058 1.010569,-0.14156 z"
       id="path1" /></g></svg>
